<?xml version="1.0" standalone="no"?>
<!DOCTYPE svg PUBLIC "-//W3C//DTD SVG 1.1//EN" "http://www.w3.org/Graphics/SVG/1.1/DTD/svg11.dtd" >
<svg xmlns="http://www.w3.org/2000/svg" xmlns:xlink="http://www.w3.org/1999/xlink" version="1.1">
<metadata></metadata>
<defs>
<font id="nimbus_sans_d_otlight" horiz-adv-x="1103" >
<font-face units-per-em="2048" ascent="1638" descent="-410" />
<missing-glyph horiz-adv-x="512" />
<glyph unicode="&#xfb01;" horiz-adv-x="980" d="M39 881v102h143v180q0 217 203 217q37 0 86 -6v-106q-44 6 -57 6q-68 0 -88.5 -26.5t-20.5 -114.5v-150h166v-102h-166v-881h-123v881h-143zM705 0v983h124v-983h-124zM705 1200v166h124v-166h-124z" />
<glyph unicode="&#xfb02;" horiz-adv-x="978" d="M39 881v102h143v180q0 217 203 217q37 0 86 -6v-106q-44 6 -57 6q-68 0 -88.5 -26.5t-20.5 -114.5v-150h166v-102h-166v-881h-123v881h-143zM707 0v1366h122v-1366h-122z" />
<glyph horiz-adv-x="0" />
<glyph horiz-adv-x="682" />
<glyph unicode=" "  horiz-adv-x="512" />
<glyph unicode="&#x09;" horiz-adv-x="512" />
<glyph unicode="&#xa0;" horiz-adv-x="512" />
<glyph unicode="!" horiz-adv-x="466" d="M164 0v174h139v-174h-139zM164 985v381h139v-381q0 -156 -24 -651h-93q-22 469 -22 651z" />
<glyph unicode="&#x22;" horiz-adv-x="667" d="M137 1366h131l-16 -547h-98zM399 1366h133l-18 -547h-98z" />
<glyph unicode="#" horiz-adv-x="1105" d="M100 420l17 98h159l52 330h-160l16 98h160l68 420h104l-65 -420h299l67 420h107l-68 -420h158l-15 -98h-157l-54 -330h162l-16 -98h-160l-67 -420h-107l68 420h-301l-66 -420h-106l65 420h-160zM383 518h299l53 330h-301z" />
<glyph unicode="$" d="M98 416h129q5 -140 75 -219.5t200 -92.5v564q-108 25 -158 42.5t-86 43.5q-58 41 -89.5 114t-31.5 164q0 159 89.5 247.5t275.5 111.5v180h98v-180q157 -6 256 -98t109 -244h-123q-24 219 -242 237v-514q110 -27 165.5 -45t94.5 -41q71 -41 108.5 -115.5t37.5 -173.5 q0 -177 -106 -281t-300 -118v-178h-98v178q-188 11 -295.5 121.5t-108.5 296.5zM262 1040q0 -62 23 -113t63 -77q48 -30 154 -57v493q-118 -15 -179 -77.5t-61 -168.5zM600 102q68 11 106 24.5t72 39.5q47 37 74 95.5t27 127.5q0 74 -31.5 128.5t-89.5 82.5q-50 22 -158 49 v-547z" />
<glyph unicode="%" horiz-adv-x="1396" d="M68 1028q0 166 62.5 255t180.5 89t181 -89.5t63 -258.5t-63 -258.5t-181 -89.5q-120 0 -181.5 89.5t-61.5 262.5zM166 1026q0 -130 37 -198t108 -68t108.5 68.5t37.5 195.5t-37.5 195.5t-108.5 68.5q-70 0 -107.5 -68t-37.5 -194zM203 0l872 1366h117l-870 -1366h-119z M840 346q0 166 62.5 255t180.5 89t181 -89.5t63 -258.5t-63 -258.5t-181 -89.5q-120 0 -181.5 89.5t-61.5 262.5zM938 344q0 -130 37 -198t108 -68t108.5 68.5t37.5 195.5t-37.5 195.5t-108.5 68.5q-70 0 -107.5 -68t-37.5 -194z" />
<glyph unicode="&#x26;" horiz-adv-x="1247" d="M117 395q0 137 75.5 235t245.5 183q-75 100 -103 162t-28 131q0 116 87 195t214 79q123 0 199 -74t76 -194q0 -119 -72 -203q-24 -29 -53.5 -50t-98.5 -60q-18 -12 -36 -21l338 -405q50 95 53 256h123q-25 -199 -99 -350l224 -279h-142l-149 178q-104 -107 -197.5 -149.5 t-222.5 -42.5q-196 0 -315 112t-119 297zM246 397q0 -134 91 -220.5t232 -86.5q200 0 324 180l-387 461q-79 -42 -120 -71t-69 -62q-71 -86 -71 -201zM430 1106q0 -97 121 -244l11 5.5t16 6.5q188 83 188 228q0 74 -44 120t-116 46q-75 0 -125.5 -46.5t-50.5 -115.5z" />
<glyph unicode="'" horiz-adv-x="391" d="M123 1366h145l-16 -547h-113z" />
<glyph unicode="(" horiz-adv-x="600" d="M106 567q0 216 70 427t199 384h94q-79 -114 -131 -245q-58 -140 -80 -263t-22 -301q0 -239 55 -432t178 -383h-94q-145 220 -207 407.5t-62 405.5z" />
<glyph unicode=")" horiz-adv-x="600" d="M129 -246q123 183 178 374t55 437q0 239 -56 434t-177 379h94q142 -212 205.5 -403t63.5 -408q0 -437 -269 -813h-94z" />
<glyph unicode="*" horiz-adv-x="796" d="M88 1112l29 84l235 -84v254h90l-2 -254l238 84l29 -84l-240 -78l149 -200l-69 -52l-150 203l-155 -203l-70 52l156 200z" />
<glyph unicode="+" d="M190 629v108h304v307h116v-307h303v-108h-303v-307h-116v307h-304z" />
<glyph unicode="," horiz-adv-x="444" d="M150 0v172h143v-149q0 -131 -32 -195t-111 -92v82q38 17 53.5 50.5t15.5 102.5q0 17 -2 29h-67z" />
<glyph unicode="-" horiz-adv-x="436" d="M0 434v117h436v-117h-436z" />
<glyph unicode="." horiz-adv-x="444" d="M150 0v170h143v-170h-143z" />
<glyph unicode="/" horiz-adv-x="886" d="M66 -246l620 1624h117l-623 -1624h-114z" />
<glyph unicode="0" d="M109 692q0 335 113.5 511.5t330.5 176.5t329.5 -177.5t112.5 -518.5q0 -343 -112.5 -520.5t-329.5 -177.5q-118 0 -210.5 57.5t-145.5 163.5q-47 95 -67.5 207t-20.5 278zM244 688q0 -243 61 -403q31 -84 98 -133.5t150 -49.5q82 0 148.5 50t97.5 133q61 160 61 397 q0 249 -61 399q-32 83 -99 133t-147 50q-83 0 -150 -49.5t-98 -133.5q-61 -153 -61 -393z" />
<glyph unicode="1" d="M246 1026v82h14q108 0 184 31q75 31 109.5 83t42.5 144h96v-1366h-125v1026h-321z" />
<glyph unicode="2" d="M117 0q1 141 39.5 239t127.5 181t253 176q191 110 254 189t63 206q0 133 -72.5 203t-210.5 70q-189 0 -258 -148q-29 -65 -34 -194h-136q9 219 123 338.5t312 119.5q186 0 298.5 -105t112.5 -278q0 -180 -121 -307q-44 -47 -96 -84t-170 -106q-187 -106 -265.5 -193 t-80.5 -190h729v-117h-868z" />
<glyph unicode="3" d="M106 406h132q8 -115 47 -175q37 -60 107 -94.5t153 -34.5q138 0 226.5 82t88.5 209q0 132 -83 205.5t-232 73.5q-10 0 -92 -4v104q43 -6 69 -6q141 0 220 68t79 190q0 109 -72 173.5t-194 64.5q-89 0 -157 -35.5t-99 -98.5q-19 -37 -26 -74t-9 -100h-129v23 q0 180 117 291.5t305 111.5q175 0 285 -96t110 -250q0 -104 -45.5 -178t-142.5 -125q118 -41 174.5 -120.5t56.5 -202.5q0 -186 -126 -304t-324 -118q-160 0 -273 77.5t-151 212.5q-15 56 -15 130z" />
<glyph unicode="4" d="M100 340v109l613 917h110v-917h191v-109h-191v-340h-123v340h-600zM233 449h467v714z" />
<glyph unicode="5" d="M111 365h131q11 -123 87.5 -193t200.5 -70q152 0 239 92t87 255q0 152 -81.5 236.5t-229.5 84.5q-96 0 -161 -31t-118 -102h-110l110 729h660v-117h-568l-69 -440q80 44 143 62t141 18q193 0 306.5 -118.5t113.5 -319.5q0 -212 -122.5 -338.5t-327.5 -126.5 q-183 0 -298 101t-134 278z" />
<glyph unicode="6" d="M109 629q0 301 77 479q57 131 162.5 201.5t243.5 70.5q93 0 175.5 -37t133.5 -102q30 -39 45.5 -82.5t26.5 -116.5h-135q-30 222 -248 222q-187 0 -268 -164q-82 -155 -82 -348l2 -60q121 178 336 178q183 0 300 -122t117 -312q0 -202 -118.5 -326t-311.5 -124 q-109 0 -197.5 40t-142.5 113q-62 86 -89 201t-27 289zM260 428q0 -153 79.5 -239.5t219.5 -86.5q138 0 218.5 88t80.5 240q0 150 -80 238t-215 88q-138 0 -220.5 -89.5t-82.5 -238.5z" />
<glyph unicode="7" d="M129 1249v117h864v-117q-199 -216 -350 -568t-188 -681h-142q44 282 150 555q92 226 152.5 335.5t209.5 313.5q18 24 21 27l12 18h-729z" />
<glyph unicode="8" d="M98 399q0 117 57.5 198t184.5 142q-104 62 -145 123t-41 156q0 160 112 261t289 101q172 0 279.5 -93.5t107.5 -244.5q0 -105 -46 -176.5t-142 -117.5q252 -84 252 -349q0 -184 -125 -298.5t-326 -114.5q-197 0 -327 117.5t-130 295.5zM233 397q0 -135 85.5 -215 t230.5 -80q141 0 230 83t89 216q0 131 -84.5 208t-228.5 77q-145 0 -233.5 -79.5t-88.5 -209.5zM285 1028q0 -109 71.5 -175.5t190.5 -66.5q116 0 191 71t75 181q0 103 -70 164.5t-188 61.5q-121 0 -195.5 -65t-74.5 -171z" />
<glyph unicode="9" d="M109 928q0 204 118 328t312 124q109 0 197.5 -40t142.5 -113q62 -86 89 -201t27 -289q0 -303 -77 -481q-57 -129 -163 -199.5t-243 -70.5q-95 0 -177 37t-132 100q-31 40 -47.5 83.5t-26.5 115.5h135q34 -220 250 -220q186 0 268 162q82 158 82 350q0 8 -4 58 q-118 -178 -334 -178q-183 0 -300 122.5t-117 311.5zM246 936q0 -151 79.5 -239.5t215.5 -88.5q137 0 219 90t82 240q0 152 -79 239t-218 87q-138 0 -218.5 -88t-80.5 -240z" />
<glyph unicode=":" horiz-adv-x="444" d="M150 0v170h143v-170h-143zM150 717v170h143v-170h-143z" />
<glyph unicode=";" horiz-adv-x="444" d="M150 0v172h143v-149q0 -131 -32 -195t-111 -92v82q38 17 53.5 50.5t15.5 102.5q0 17 -2 29h-67zM150 717v170h143v-170h-143z" />
<glyph unicode="&#x3c;" horiz-adv-x="1024" d="M68 625v116l886 410v-133l-745 -336l745 -336v-131z" />
<glyph unicode="=" d="M199 485v109h708v-109h-708zM199 774v109h708v-109h-708z" />
<glyph unicode="&#x3e;" horiz-adv-x="1024" d="M70 215v131l745 336l-745 336v133l886 -410v-116z" />
<glyph unicode="?" horiz-adv-x="935" d="M61 942q12 222 116.5 330t305.5 108q180 0 287 -96.5t107 -259.5q0 -130 -93 -240q-33 -36 -56 -58t-107 -95q-68 -64 -87.5 -116t-19.5 -177h-115q-2 143 37 227.5t144 169.5q99 85 133.5 143.5t34.5 141.5q0 120 -70.5 185t-198.5 65q-168 0 -241 -119 q-26 -42 -37 -88.5t-11 -120.5h-129zM387 0v170h137v-170h-137z" />
<glyph unicode="@" horiz-adv-x="1443" d="M41 682q0 196 94.5 359t258 256.5t360.5 93.5q184 0 332.5 -79t232.5 -218.5t84 -311.5q0 -126 -46.5 -239t-124 -180.5t-163.5 -67.5q-63 0 -103 38t-46 103q-46 -72 -112 -109.5t-144 -37.5q-126 0 -207.5 93.5t-81.5 238.5q0 172 105.5 293.5t254.5 121.5 q170 0 230 -162l26 138h101l-84 -437q-12 -61 -15 -96q-1 -42 21.5 -70t58.5 -28q92 0 165 122t73 277q0 226 -156 372t-399 146q-170 0 -311.5 -81.5t-222.5 -223.5t-81 -313q0 -122 44 -234.5t124 -197.5q171 -180 467 -180q234 0 434 98l31 -90q-212 -101 -465 -101 q-329 0 -530 201q-97 97 -151 230.5t-54 275.5zM487 623q0 -104 54.5 -169t142.5 -65q101 0 171.5 96.5t70.5 237.5q0 97 -49 153t-134 56q-104 0 -180 -91.5t-76 -217.5z" />
<glyph unicode="A" horiz-adv-x="1267" d="M27 0l536 1366h144l534 -1366h-143l-164 432h-602l-162 -432h-143zM373 539h524l-264 698z" />
<glyph unicode="B" horiz-adv-x="1292" d="M164 0v1366h522q114 0 170 -8t105 -31q82 -38 128 -118t46 -183q0 -107 -46 -177.5t-149 -123.5q134 -43 195 -122.5t61 -209.5q0 -129 -59.5 -224.5t-165.5 -135.5q-50 -19 -105.5 -26t-160.5 -7h-541zM301 115h404q90 0 136 5.5t85 22.5q72 29 106.5 87t34.5 151 q0 207 -170 256q-58 18 -195 18h-401v-540zM301 762h365q85 0 123.5 4t72.5 16q66 25 105 87t39 143q0 84 -37.5 142.5t-104.5 80.5q-60 16 -202 16h-361v-489z" />
<glyph unicode="C" horiz-adv-x="1366" d="M106 694q0 264 125 449q171 250 504 250q213 0 347.5 -105t185.5 -311h-133q-94 299 -406 299q-227 0 -356 -159.5t-129 -440.5q0 -267 129.5 -426.5t347.5 -159.5q173 0 293 108.5t143 286.5h131q-35 -243 -185 -377.5t-386 -134.5q-285 0 -448 192.5t-163 528.5z" />
<glyph unicode="D" horiz-adv-x="1355" d="M164 0v1366h428q184 0 262 -14t147 -60q248 -167 248 -596q0 -228 -70.5 -389t-205.5 -239q-65 -38 -140.5 -53t-207.5 -15h-461zM303 117h311q128 0 194 17t124 63q86 69 133 201.5t47 303.5q0 184 -57.5 315t-161.5 187q-51 28 -108 36.5t-187 8.5h-295v-1132z" />
<glyph unicode="E" horiz-adv-x="1183" d="M164 0v1366h917v-117h-780v-493h717v-111h-717v-530h799v-115h-936z" />
<glyph unicode="F" horiz-adv-x="1091" d="M164 0v1366h866v-117h-729v-495h633v-109h-633v-645h-137z" />
<glyph unicode="G" horiz-adv-x="1439" d="M106 678q0 324 170.5 519.5t454.5 195.5q227 0 376 -115.5t183 -316.5h-131q-37 155 -145 235t-281 80q-229 0 -359 -156.5t-130 -433.5q0 -274 131 -436t354 -162q167 0 288.5 99.5t156.5 265.5q8 35 9 52.5t1 86.5h-457v110h576v-702h-105v227q-104 -138 -214.5 -196 t-266.5 -58q-275 0 -443 194t-168 511z" />
<glyph unicode="H" horiz-adv-x="1349" d="M164 0v1366h135v-588h750v588h137v-1366h-137v668h-750v-668h-135z" />
<glyph unicode="I" horiz-adv-x="466" d="M164 0v1366h139v-1366h-139z" />
<glyph unicode="J" horiz-adv-x="925" d="M20 367q0 32 3 73h131q0 -106 6 -153.5t26 -83.5q60 -113 220 -113q172 0 217 131q12 33 15 70t3 135v940h135v-963q0 -98 -12 -160.5t-41 -111.5q-90 -158 -322 -158q-189 0 -285 99.5t-96 294.5z" />
<glyph unicode="K" horiz-adv-x="1259" d="M164 0v1366h135v-704l741 704h183l-605 -565l613 -801h-162l-543 713l-227 -213v-500h-135z" />
<glyph unicode="L" horiz-adv-x="1046" d="M164 0v1366h137v-1251h711v-115h-848z" />
<glyph unicode="M" horiz-adv-x="1601" d="M164 0v1366h166l475 -1206l469 1206h164v-1366h-123v1149l-445 -1149h-129l-458 1149v-1149h-119z" />
<glyph unicode="N" horiz-adv-x="1359" d="M164 0v1366h135l776 -1167v1167h121v-1366h-135l-776 1169v-1169h-121z" />
<glyph unicode="O" horiz-adv-x="1474" d="M106 680q0 134 37 258.5t105 220.5q86 120 205.5 177t283.5 57q167 0 286 -57t204 -177q141 -197 141 -489q0 -318 -171 -507.5t-458 -189.5q-293 0 -463 190t-170 517zM244 686q0 -280 131.5 -438t363.5 -158q227 0 359.5 158t132.5 430q0 280 -132 439t-362 159 q-229 0 -361 -158t-132 -432z" />
<glyph unicode="P" horiz-adv-x="1187" d="M164 0v1366h489q127 0 186 -10t113 -39q80 -44 124 -131.5t44 -202.5q0 -131 -56.5 -222.5t-162.5 -131.5q-50 -19 -112 -26t-181 -7h-309v-596h-135zM299 715h307q169 0 228 20q72 25 110.5 89t38.5 161q0 187 -135 240q-62 22 -191 22h-358v-532z" />
<glyph unicode="Q" horiz-adv-x="1476" d="M106 666q0 318 166 524q162 203 461 203q159 0 273 -51t202 -160q164 -212 164 -496q0 -89 -18 -186t-47 -166q-41 -93 -142 -207l176 -133l-69 -88l-195 157q-151 -90 -344 -90q-286 0 -456.5 189t-170.5 504zM246 678q0 -272 132 -431t359 -159q136 0 232 57l-135 109 l67 84l166 -129q88 95 127 205.5t39 265.5q0 278 -132 437t-364 159q-120 0 -216 -44.5t-156 -127.5q-57 -78 -88 -189t-31 -237z" />
<glyph unicode="R" horiz-adv-x="1300" d="M164 0v1366h553q206 0 293 -51q78 -43 121 -126.5t43 -191.5q0 -232 -211 -325q74 -41 104 -78.5t43 -101.5t20 -213q8 -116 14.5 -159t18 -65t45.5 -55h-164q-17 50 -22.5 84t-11.5 135q-10 167 -32.5 246t-68.5 113q-32 24 -74.5 31t-152.5 7h-383v-616h-135zM299 727 h367q141 0 211 21q75 23 117 89t42 162t-43.5 157t-126.5 81q-58 12 -196 12h-371v-522z" />
<glyph unicode="S" horiz-adv-x="1191" d="M82 453h133q12 -184 108.5 -273.5t282.5 -89.5q167 0 263 75.5t96 207.5q0 122 -95 178q-47 29 -117 49.5t-218 50.5q-131 28 -204 55.5t-116 65.5q-46 41 -72 106t-26 138q0 174 126.5 275.5t344.5 101.5q225 0 345 -100t140 -304h-137q-2 68 -14.5 106.5t-44.5 73.5 q-94 107 -289 107q-155 0 -245.5 -69t-90.5 -189q0 -105 72 -159t260 -89q157 -29 234 -52t136 -59q68 -41 106 -112.5t38 -157.5q0 -186 -137 -301t-357 -115q-149 0 -262 49.5t-178 141.5q-43 62 -62 127.5t-20 161.5z" />
<glyph unicode="T" horiz-adv-x="1089" d="M35 1249v117h1022v-117h-441v-1249h-137v1249h-444z" />
<glyph unicode="U" horiz-adv-x="1308" d="M150 485v881h137v-874q0 -107 9 -157t36 -95q43 -71 127 -110.5t194 -39.5q127 0 215 49.5t125 141.5q16 44 21.5 89.5t5.5 135.5v860h137v-870q0 -207 -72 -322q-63 -97 -175.5 -149t-260.5 -52q-164 0 -284.5 63t-171.5 175q-43 92 -43 274z" />
<glyph unicode="V" horiz-adv-x="1157" d="M27 1366h139l407 -1202l424 1202h133l-495 -1366h-133z" />
<glyph unicode="W" horiz-adv-x="1697" d="M27 1366h141l289 -1173l313 1173h162l307 -1194l297 1194h133l-358 -1366h-152l-311 1169l-322 -1169h-145z" />
<glyph unicode="X" horiz-adv-x="1124" d="M20 0l465 690l-456 676h161l373 -561l379 561h150l-455 -676l467 -690h-162l-379 573l-383 -573h-160z" />
<glyph unicode="Y" horiz-adv-x="1183" d="M14 1366h168l414 -637l418 637h155l-505 -766v-600h-138v600z" />
<glyph unicode="Z" horiz-adv-x="1163" d="M57 0v82l881 1167h-807v117h961v-115l-854 -1134h870v-117h-1051z" />
<glyph unicode="[" horiz-adv-x="604" d="M150 -231v1597h317v-100h-203v-1397h203v-100h-317z" />
<glyph unicode="\" horiz-adv-x="886" d="M106 1378h117l621 -1624h-115z" />
<glyph unicode="]" horiz-adv-x="604" d="M137 -131h203v1397h-203v100h318v-1597h-318v100z" />
<glyph unicode="^" horiz-adv-x="1024" d="M70 776l364 592h154l364 -592h-129l-313 502l-313 -502h-127z" />
<glyph unicode="_" horiz-adv-x="1024" d="M0 -152h1024v-90h-1024v90z" />
<glyph unicode="`" horiz-adv-x="1024" d="M319 1413h164l140 -252h-99z" />
<glyph unicode="a" horiz-adv-x="1038" d="M88 254q0 127 74 201q41 43 93.5 64t154.5 36l243 37q43 6 62 10.5t32 18.5t15 32.5t2 59.5q0 101 -59.5 146.5t-190.5 45.5q-126 0 -184.5 -50t-67.5 -165h-133q11 156 108.5 238t274.5 82q117 0 204 -34t128 -95q24 -36 31.5 -77.5t7.5 -139.5v-492q0 -55 12.5 -75.5 t46.5 -20.5q17 0 53 8v-84q-55 -18 -92 -18q-72 0 -104 33.5t-39 119.5q-83 -90 -162 -126t-195 -36q-149 0 -232 74.5t-83 206.5zM211 260q0 -86 56 -134t155 -48q90 0 165 34t122 97q29 36 40 85t11 136v78l-336 -51q-114 -19 -163.5 -64.5t-49.5 -132.5z" />
<glyph unicode="b" horiz-adv-x="1120" d="M150 0v1366h122v-528q75 92 151 132t177 40q196 0 311 -139t115 -375q0 -235 -119.5 -379t-314.5 -144q-97 0 -170.5 37t-149.5 125v-135h-122zM272 498q0 -99 14 -164t48 -119q41 -66 107 -102.5t143 -36.5q148 0 233.5 114.5t85.5 311.5q0 193 -79.5 298t-225.5 105 q-75 0 -142.5 -33t-111.5 -92q-72 -100 -72 -282z" />
<glyph unicode="c" horiz-adv-x="1011" d="M94 479q0 239 126 385t333 146q161 0 263.5 -88.5t125.5 -247.5h-123q-12 110 -80 168.5t-184 58.5q-157 0 -246.5 -110.5t-89.5 -303.5q0 -186 88.5 -295.5t237.5 -109.5q116 0 188.5 67.5t85.5 188.5h121q-41 -180 -146 -272.5t-266 -92.5q-196 0 -315 138.5 t-119 367.5z" />
<glyph unicode="d" horiz-adv-x="1120" d="M94 496q0 236 115 375t311 139q101 0 177 -40t151 -132v528h123v-1366h-123v135q-76 -88 -149.5 -125t-170.5 -37q-195 0 -314.5 144t-119.5 379zM217 502q0 -197 86 -311.5t234 -114.5q77 0 142.5 36.5t106.5 102.5q62 101 62 270q0 104 -17 172.5t-55 122.5 q-43 58 -111 91.5t-145 33.5q-146 0 -224.5 -104.5t-78.5 -298.5z" />
<glyph unicode="e" horiz-adv-x="1046" d="M94 475q0 243 120 389t321 146q152 0 254 -81t139 -229q14 -62 24 -227h-741q1 -192 84 -294.5t235 -102.5q117 0 193 58.5t104 172.5h125q-44 -113 -88 -174q-56 -76 -144.5 -118t-193.5 -42q-201 0 -316.5 134.5t-115.5 367.5zM217 578h610q-8 159 -82 244t-206 85 q-79 0 -146 -34.5t-108 -96.5q-28 -44 -43 -86t-25 -112z" />
<glyph unicode="f" horiz-adv-x="528" d="M39 881v102h143v180q0 217 203 217q37 0 86 -6v-106q-44 6 -57 6q-68 0 -88.5 -26.5t-20.5 -114.5v-150h166v-102h-166v-881h-123v881h-143z" />
<glyph unicode="g" horiz-adv-x="1118" d="M94 504q0 226 119 366t311 140q199 0 322 -166v139h123v-817q0 -133 -11.5 -208t-39.5 -128q-51 -90 -152 -138t-240 -48q-169 0 -267 66t-118 194h125q3 -34 12.5 -55.5t30.5 -41.5q32 -31 96 -50t132 -19q79 0 144 27t103 77q34 41 45.5 94.5t14.5 180.5l2 49 q-79 -92 -150 -128t-172 -36q-196 0 -313 136.5t-117 365.5zM215 504q0 -187 85.5 -294.5t234.5 -107.5q150 0 234.5 107.5t84.5 298.5q0 192 -81.5 295.5t-233.5 103.5q-149 0 -236.5 -108.5t-87.5 -294.5z" />
<glyph unicode="h" horiz-adv-x="1077" d="M150 0v1366h122v-502q86 88 149.5 117t166.5 29q123 0 204.5 -48.5t112.5 -140.5q12 -38 16.5 -78.5t4.5 -134.5v-608h-123v629q0 74 -5 107.5t-20 64.5q-26 51 -80.5 78.5t-128.5 27.5q-94 0 -165 -45t-105 -127q-11 -26 -19 -83.5t-8 -106.5v-545h-122z" />
<glyph unicode="i" horiz-adv-x="423" d="M150 0v983h122v-983h-122zM150 1200v166h122v-166h-122z" />
<glyph unicode="j" horiz-adv-x="430" d="M18 -236q23 -4 41 -4q66 0 88 64q11 37 11 149v1010h123v-1014q0 -110 -9.5 -162t-35.5 -86q-50 -65 -175 -65q-25 0 -43 2v106zM158 1198v168h123v-168h-123z" />
<glyph unicode="k" horiz-adv-x="1001" d="M150 0v1366h122v-842l484 459h168l-392 -360l426 -623h-151l-358 545l-177 -162v-383h-122z" />
<glyph unicode="l" horiz-adv-x="423" d="M150 0v1366h122v-1366h-122z" />
<glyph unicode="m" horiz-adv-x="1605" d="M150 0v983h122v-106q60 69 126.5 101t152.5 32q199 0 285 -168q54 86 130 127t183 41q109 0 184.5 -45.5t104.5 -130.5q18 -58 18 -187v-647h-123v643q0 103 -16 152q-38 112 -191 112q-94 0 -157 -47.5t-88 -136.5q-15 -59 -15 -152v-571h-123v598q0 143 -16 195 q-41 114 -182 114q-102 0 -170 -54t-90 -153q-13 -76 -13 -178v-522h-122z" />
<glyph unicode="n" horiz-adv-x="1077" d="M150 0v983h122v-119q72 82 142 114t174 32q123 0 204 -48.5t113 -140.5q21 -67 21 -186v-635h-123v629q0 118 -25 172q-26 51 -80.5 78.5t-128.5 27.5q-95 0 -166.5 -45t-105.5 -127q-25 -68 -25 -190v-545h-122z" />
<glyph unicode="o" horiz-adv-x="1095" d="M94 485q0 235 125.5 380t329.5 145t328 -146t124 -385q0 -233 -121.5 -369.5t-330.5 -136.5q-212 0 -333.5 136.5t-121.5 375.5zM217 485q0 -194 87 -300.5t245 -106.5q155 0 242.5 106t87.5 295q0 198 -88.5 312t-241.5 114q-154 0 -243 -113t-89 -307z" />
<glyph unicode="p" horiz-adv-x="1120" d="M150 -352v1335h122v-141q67 90 143.5 129t182.5 39q187 0 306.5 -143.5t119.5 -366.5q0 -101 -30 -201.5t-81 -171.5q-54 -73 -141.5 -113.5t-193.5 -40.5q-102 0 -173.5 35.5t-132.5 116.5v-477h-122zM266 500q0 -191 64 -295q38 -60 104 -94.5t144 -34.5 q148 0 235.5 112t87.5 301q0 197 -82.5 307.5t-230.5 110.5q-79 0 -146.5 -35t-111.5 -98q-64 -94 -64 -274z" />
<glyph unicode="q" horiz-adv-x="1120" d="M94 500q0 223 119.5 366.5t306.5 143.5q106 0 182.5 -39t143.5 -129v141h123v-1335h-123v477q-62 -82 -132 -117t-173 -35q-106 0 -194 40.5t-142 113.5q-51 71 -81 171.5t-30 201.5zM217 498q0 -196 86.5 -309t237.5 -113q78 0 144 34.5t103 94.5q64 104 64 295 q0 177 -64 274q-43 63 -111.5 98t-146.5 35q-145 0 -229 -110t-84 -299z" />
<glyph unicode="r" horiz-adv-x="647" d="M150 0v983h122v-164q57 99 119 139.5t156 40.5q19 0 49 -6v-119q-7 1 -17 2t-16 2t-10 1q-77 0 -144 -50t-102 -133q-20 -46 -27.5 -95t-7.5 -140v-461h-122z" />
<glyph unicode="s" horiz-adv-x="931" d="M82 309h123q18 -229 282 -229q114 0 179 51.5t65 140.5q0 47 -23.5 76.5t-80.5 52.5q-34 13 -73 23.5t-185 42.5q-135 29 -197.5 91.5t-62.5 166.5q0 132 96 208.5t262 76.5q335 0 369 -308h-121q-20 107 -77.5 151t-178.5 44q-106 0 -167 -42.5t-61 -117.5 q0 -85 78 -125q47 -21 207 -57q106 -25 151 -40t83 -38q104 -60 104 -196q0 -141 -103 -224.5t-278 -83.5q-186 0 -288.5 88t-102.5 248z" />
<glyph unicode="t" horiz-adv-x="528" d="M35 881v102h141v291h123v-291h156v-102h-156v-693q0 -58 10 -75q21 -31 68 -31q28 0 78 20v-79q-62 -29 -125 -29q-57 0 -95.5 24t-50.5 68q-8 25 -8 131v664h-141z" />
<glyph unicode="u" horiz-adv-x="1077" d="M150 375v608h122v-614q0 -86 5 -120t20 -67q26 -51 80.5 -78.5t128.5 -27.5q156 0 237 110q60 83 60 224v573h123v-983h-123v119q-72 -82 -142 -114t-174 -32q-123 0 -204 48.5t-113 140.5q-12 37 -16 78t-4 135z" />
<glyph unicode="v" horiz-adv-x="892" d="M14 983h136l296 -827l302 827h133l-377 -983h-125z" />
<glyph unicode="w" horiz-adv-x="1337" d="M14 983h131l238 -797l223 797h127l215 -797l248 797h129l-315 -983h-123l-217 784l-230 -784h-123z" />
<glyph unicode="x" horiz-adv-x="903" d="M6 0l375 514l-340 469h145l263 -381l268 381h145l-346 -469l379 -514h-147l-299 420l-297 -420h-146z" />
<glyph unicode="y" horiz-adv-x="901" d="M14 983h133l310 -817l305 817h127l-447 -1149q-41 -106 -92 -146t-145 -40q-33 0 -82 8v108q55 -14 82 -14q95 0 147 135l47 127z" />
<glyph unicode="z" horiz-adv-x="876" d="M59 0v90l603 782h-558v111h713v-84l-598 -788h623v-111h-783z" />
<glyph unicode="{" horiz-adv-x="622" d="M96 522v96q58 17 82.5 60t24.5 127v282q0 148 60.5 213.5t197.5 65.5h26v-104h-26q-78 0 -112 -43.5t-34 -143.5v-276q0 -96 -22.5 -147.5t-79.5 -86.5q57 -34 79.5 -86.5t22.5 -150.5v-260q0 -119 39 -158q14 -15 45 -26t62 -11h26v-104h-28q-140 0 -198 69t-58 236v254 q0 89 -23.5 131.5t-83.5 62.5z" />
<glyph unicode="|" horiz-adv-x="1024" d="M446 -342v1708h134v-1708h-134z" />
<glyph unicode="}" horiz-adv-x="622" d="M137 -127h27q78 0 111.5 43t33.5 143v277q0 96 22.5 146.5t80.5 86.5q-57 34 -80 87t-23 151v260q0 119 -39 158q-14 15 -45 26t-61 11h-27v104h29q140 0 198 -69t58 -236v-254q0 -89 23 -132t83 -63v-96q-58 -17 -82 -59.5t-24 -126.5v-283q0 -148 -60.5 -213 t-197.5 -65h-27v104z" />
<glyph unicode="~" horiz-adv-x="1366" d="M195 1257q57 113 122 166.5t148 53.5q44 0 96.5 -18t140.5 -64q91 -45 128.5 -58.5t74.5 -13.5q55 0 100 36.5t95 121.5l74 -56q-58 -117 -123 -170t-148 -53q-43 0 -92 17.5t-147 68.5q-86 42 -125 56t-78 14q-56 0 -99 -35.5t-94 -122.5z" />
<glyph unicode="&#xa1;" horiz-adv-x="466" d="M164 135q0 154 24 649h93q22 -469 22 -649v-381h-139v381zM164 946v174h139v-174h-139z" />
<glyph unicode="&#xa2;" d="M127 672q0 272 160 420q50 44 103 67.5t138 36.5v184h93v-184q149 -7 241 -95t111 -239h-123q-12 213 -229 228v-818q98 14 159 81t70 173h123q-25 -150 -121 -248.5t-231 -113.5v-184h-93v184q-100 11 -164 41.5t-116 93.5q-121 139 -121 373zM248 676q0 -170 78 -283 q39 -55 84 -82t118 -37v811q-68 -10 -110 -34t-78 -70q-92 -119 -92 -305z" />
<glyph unicode="&#xa3;" d="M86 61q107 66 166 154.5t59 185.5q0 108 -57 222h-168v79h135q-7 13 -10 27q-40 95 -52 142t-12 106q0 177 123 290t314 113q244 0 356 -190q46 -79 59 -234h-135q-2 146 -75.5 226t-206.5 80q-129 0 -213 -77t-84 -196q0 -108 77 -287h355v-79h-322q35 -118 35 -191 q0 -74 -31 -141.5t-108 -163.5q86 29 149 29q62 0 168 -29q124 -33 172 -33q81 0 170 72l66 -105q-116 -88 -246 -88q-36 0 -65 6.5t-123 34.5q-115 37 -193 37q-60 0 -113.5 -17.5t-125.5 -60.5z" />
<glyph unicode="&#xa4;" horiz-adv-x="1095" d="M68 256l112 113q-88 133 -88 286q0 154 88 287l-112 113l79 80l111 -111q119 96 289 96q173 0 289 -96l110 111l82 -80l-115 -113q91 -130 91 -287q0 -156 -91 -286l115 -113l-82 -80l-110 111q-118 -97 -289 -97q-168 0 -289 97l-111 -111zM217 659q0 -164 91.5 -264 t240.5 -100q146 0 238 100t92 260t-92 260.5t-238 100.5q-148 0 -240 -99.5t-92 -257.5z" />
<glyph unicode="&#xa5;" d="M-25 1366h152l430 -655l426 655h145l-325 -502h239v-102h-305l-108 -164h413v-104h-413v-494h-137v494h-420v104h420l-113 164h-307v102h239z" />
<glyph unicode="&#xa6;" horiz-adv-x="1024" d="M446 313h134v-655h-134v655zM446 688v678h134v-678h-134z" />
<glyph unicode="&#xa7;" horiz-adv-x="1159" d="M150 672q0 185 188 262q-45 45 -64.5 87.5t-19.5 96.5q0 122 89 198.5t230 76.5q160 0 247.5 -87.5t88.5 -250.5h-125q-6 115 -58.5 171t-154.5 56q-85 0 -136.5 -43.5t-51.5 -114.5q0 -76 80 -139q21 -15 219 -129q192 -110 259 -184.5t67 -177.5q0 -86 -48.5 -154 t-140.5 -109q56 -53 77.5 -97t21.5 -105q0 -123 -93 -202t-239 -79q-200 0 -293 137q-30 42 -43.5 89.5t-16.5 123.5h129q12 -239 226 -239q88 0 143 46t55 118q0 49 -29 89t-100 87q-31 20 -274 163q-125 72 -179 144t-54 166zM272 680q0 -69 68 -131q28 -25 67.5 -50.5 t165.5 -97.5q81 -48 162 -102q77 34 112.5 76t35.5 102q0 89 -101 162q-58 44 -290 178q-40 24 -74 47q-77 -35 -111.5 -79t-34.5 -105z" />
<glyph unicode="&#xa8;" horiz-adv-x="1024" d="M266 1196v174h140v-174h-140zM616 1196v174h140v-174h-140z" />
<glyph unicode="&#xa9;" horiz-adv-x="1548" d="M68 682q0 146 56 277t151 226t227.5 150.5t279.5 55.5q187 0 348 -96t255 -259.5t94 -353.5q0 -191 -94.5 -354t-257 -258t-353.5 -95q-143 0 -274 56t-225.5 151t-150.5 226t-56 274zM160 682q0 -168 82.5 -311.5t224 -227.5t307.5 -84t307 84t223 227.5t82 311.5 t-81.5 312t-221 228.5t-301.5 84.5q-171 0 -314 -83t-225.5 -227t-82.5 -315zM418 694q0 183 102 291.5t275 108.5q259 0 323 -246h-92q-54 166 -235 166q-131 0 -205 -87.5t-74 -242.5q0 -147 74 -234.5t200 -87.5q101 0 169.5 61.5t82.5 162.5h92q-23 -145 -112.5 -223 t-233.5 -78q-170 0 -268 109.5t-98 299.5z" />
<glyph unicode="&#xaa;" horiz-adv-x="722" d="M80 705q0 76 49 122q26 26 60.5 39.5t99.5 22.5l153 20q45 6 54.5 16t9.5 50q0 57 -36 81.5t-118 24.5q-77 0 -110 -28.5t-39 -98.5h-97q12 203 248 203q140 0 203 -63q22 -23 30.5 -52t8.5 -81v-306q0 -31 6 -41t25 -10q14 0 41 8v-63q-43 -14 -66 -14q-46 0 -67 18.5 t-29 64.5q-50 -47 -100.5 -67.5t-120.5 -20.5q-95 0 -150 46.5t-55 128.5zM172 707q0 -47 33.5 -74t91.5 -27q83 0 141 43q38 26 52 59.5t14 98.5v39l-205 -29q-68 -11 -97.5 -36t-29.5 -74z" />
<glyph unicode="&#xab;" horiz-adv-x="888" d="M96 436v107l322 280v-143l-213 -186l213 -185v-149zM451 436v107l323 280v-143l-213 -186l213 -185v-149z" />
<glyph unicode="&#xac;" horiz-adv-x="1024" d="M68 446v117h886v-563h-129v446h-757z" />
<glyph unicode="&#xad;" horiz-adv-x="436" d="M0 434v117h436v-117h-436z" />
<glyph unicode="&#xae;" horiz-adv-x="1548" d="M68 682q0 146 56 277t151 226t227.5 150.5t279.5 55.5q187 0 348 -96t255 -259.5t94 -353.5q0 -191 -94.5 -354t-257 -258t-353.5 -95q-143 0 -274 56t-225.5 151t-150.5 226t-56 274zM160 682q0 -168 82.5 -311.5t224 -227.5t307.5 -84t307 84t223 227.5t82 311.5 t-81.5 312t-221 228.5t-301.5 84.5q-171 0 -314 -83t-225.5 -227t-82.5 -315zM494 301v778h333q148 0 207 -51q70 -58 70 -162q0 -133 -117 -184q39 -22 56 -43t24.5 -57.5t11.5 -116.5q5 -96 13 -115q11 -22 43 -49h-119q-17 49 -23 129q-4 53 -7.5 84t-12.5 58t-19.5 39 t-32.5 21t-47 11t-67 2h-219v-344h-94zM588 721h209q105 0 149 20q29 15 46.5 48.5t17.5 76.5q0 36 -13 65t-36 42q-23 17 -53.5 21.5t-106.5 4.5h-213v-278z" />
<glyph unicode="&#xaf;" horiz-adv-x="1024" d="M236 1237v92h552v-92h-552z" />
<glyph unicode="&#xb0;" horiz-adv-x="774" d="M96 1098q0 115 86 198.5t205 83.5q121 0 207 -83.5t86 -202.5q0 -118 -85.5 -202.5t-205.5 -84.5q-123 0 -208 84.5t-85 206.5zM195 1096q0 -80 56.5 -136.5t137.5 -56.5q78 0 135.5 56.5t57.5 134.5t-57.5 134t-137.5 56q-78 0 -135 -56t-57 -132z" />
<glyph unicode="&#xb1;" d="M199 170v109h708v-109h-708zM199 717v108h297v285h114v-285h297v-108h-297v-279h-114v279h-297z" />
<glyph unicode="&#xb2;" horiz-adv-x="727" d="M80 547q-2 130 54.5 208.5t211.5 159.5q114 63 151.5 106t37.5 112q0 145 -160 145q-110 0 -148 -78q-17 -39 -22 -121h-109q5 143 77.5 219t205.5 76q120 0 194 -65.5t74 -171.5q0 -112 -80 -189q-27 -27 -58.5 -47.5t-107.5 -62.5q-110 -60 -151.5 -99.5t-54.5 -97.5 h450v-94h-565z" />
<glyph unicode="&#xb3;" horiz-adv-x="727" d="M74 784v25h108q5 -74 29 -107q20 -32 60.5 -50.5t88.5 -18.5q80 0 131.5 44t51.5 111q0 70 -48.5 109t-134.5 39q-34 0 -71 -4v90q54 -4 57 -4q79 0 124.5 36t45.5 99q0 57 -41 91t-110 34q-51 0 -90 -19t-56 -51q-20 -36 -20 -108h-107q0 46 3 65.5t14 48.5 q28 75 96 117.5t162 42.5q114 0 186 -60t72 -155q0 -55 -22 -94.5t-75 -77.5q68 -35 96.5 -78t28.5 -112q0 -114 -82.5 -186t-210.5 -72q-126 0 -206 69t-80 176z" />
<glyph unicode="&#xb4;" horiz-adv-x="1024" d="M401 1161l140 252h164l-205 -252h-99z" />
<glyph unicode="&#xb5;" d="M170 -352v1335h123v-563q0 -87 11 -134.5t42 -88.5q35 -51 92 -81t117 -30t114 31t89 86q29 46 41 97t12 134v549h123v-983h-123v123q-54 -80 -113.5 -115t-142.5 -35q-86 0 -147.5 35.5t-114.5 114.5v-475h-123z" />
<glyph unicode="&#xb6;" d="M80 983q0 187 92 293q41 47 103.5 68.5t160.5 21.5h506v-1597h-119v1478h-145v-1478h-119v829h-78q-112 0 -181 20.5t-116 67.5q-104 101 -104 297z" />
<glyph unicode="&#xb7;" horiz-adv-x="444" d="M150 426v170h143v-170h-143z" />
<glyph unicode="&#xb8;" horiz-adv-x="1024" d="M324 -358l26 57q76 -31 142 -31q46 0 77 25.5t31 62.5q0 32 -27 53t-67 21q-33 0 -82 -16l-31 28l105 158h69l-73 -119q36 10 59 10q63 0 104 -36.5t41 -92.5q0 -71 -54 -115t-140 -44q-80 0 -180 39z" />
<glyph unicode="&#xb9;" horiz-adv-x="727" d="M178 1143v74h19q103 0 148.5 34t49.5 115h86v-819h-104v596h-199z" />
<glyph unicode="&#xba;" horiz-adv-x="757" d="M86 840q0 141 81.5 229t211.5 88q132 0 212.5 -87.5t80.5 -233.5q0 -140 -79 -223t-212 -83q-138 0 -216.5 82.5t-78.5 227.5zM178 840q0 -110 53 -172t148 -62t148 61t53 169q0 114 -53.5 179.5t-147.5 65.5q-92 0 -146.5 -65.5t-54.5 -175.5z" />
<glyph unicode="&#xbb;" horiz-adv-x="888" d="M117 160v143l213 186l-213 185v149l321 -276v-107zM471 160v143l213 186l-213 185v149l324 -276v-107z" />
<glyph unicode="&#xbc;" horiz-adv-x="1720" d="M178 1143v74h19q103 0 148.5 34t49.5 115h86v-819h-104v596h-199zM367 0l870 1366h119l-871 -1366h-118zM1065 199v80l387 540h88v-530h117v-90h-117v-199h-102v199h-373zM1188 289h250v356z" />
<glyph unicode="&#xbd;" horiz-adv-x="1720" d="M178 1143v74h19q103 0 148.5 34t49.5 115h86v-819h-104v596h-199zM367 0l870 1366h119l-871 -1366h-118zM1075 0q-1 132 55 209.5t211 159.5q114 63 151.5 106.5t37.5 112.5q0 70 -41 106.5t-119 36.5q-109 0 -147 -78q-19 -42 -23 -118h-108q5 143 77 217.5t205 74.5 q120 0 194 -64.5t74 -170.5q0 -113 -79 -189q-27 -29 -59 -50t-107 -62q-111 -60 -152.5 -99.5t-54.5 -97.5h450v-94h-565z" />
<glyph unicode="&#xbe;" horiz-adv-x="1720" d="M74 784v25h108q5 -74 29 -107q20 -32 60.5 -50.5t88.5 -18.5q80 0 131.5 44t51.5 111q0 70 -48.5 109t-134.5 39q-34 0 -71 -4v90q54 -4 57 -4q79 0 124.5 36t45.5 99q0 57 -41 91t-110 34q-51 0 -90 -19t-56 -51q-20 -36 -20 -108h-107q0 46 3 65.5t14 48.5 q28 75 96 117.5t162 42.5q114 0 186 -60t72 -155q0 -55 -22 -94.5t-75 -77.5q68 -35 96.5 -78t28.5 -112q0 -114 -82.5 -186t-210.5 -72q-126 0 -206 69t-80 176zM365 0l872 1366h119l-873 -1366h-118zM1063 199v80l387 540h88v-530h119v-90h-119v-199h-102v199h-373z M1186 289h250v356z" />
<glyph unicode="&#xbf;" horiz-adv-x="935" d="M61 96q0 130 93 240q33 36 56 58t107 95q68 63 87 115t20 178h115q1 -144 -37.5 -228t-143.5 -169q-99 -85 -133.5 -143.5t-34.5 -141.5q0 -120 70.5 -185t198.5 -65q165 0 241 119q25 42 36 88.5t12 120.5h126q-12 -223 -115 -330.5t-304 -107.5q-180 0 -287 96.5 t-107 259.5zM412 950v170h137v-170h-137z" />
<glyph unicode="&#xc0;" horiz-adv-x="1267" d="M27 0l536 1366h144l534 -1366h-143l-164 432h-602l-162 -432h-143zM373 539h524l-264 698zM399 1747h164l139 -252h-98z" />
<glyph unicode="&#xc1;" horiz-adv-x="1267" d="M27 0l536 1366h144l534 -1366h-143l-164 432h-602l-162 -432h-143zM373 539h524l-264 698zM563 1495l139 252h164l-204 -252h-99z" />
<glyph unicode="&#xc2;" horiz-adv-x="1267" d="M27 0l536 1366h144l534 -1366h-143l-164 432h-602l-162 -432h-143zM360 1497l203 248h146l200 -248h-133l-137 174l-150 -174h-129zM373 539h524l-264 698z" />
<glyph unicode="&#xc3;" horiz-adv-x="1267" d="M27 0l536 1366h144l534 -1366h-143l-164 432h-602l-162 -432h-143zM342 1524q15 91 60 138.5t116 47.5q54 0 127 -37q69 -35 89.5 -42t45.5 -7q68 0 92 94h74q-35 -186 -168 -186q-35 0 -68.5 12t-129.5 58q-34 18 -70 18q-37 0 -60 -22.5t-36 -73.5h-72zM373 539h524 l-264 698z" />
<glyph unicode="&#xc4;" horiz-adv-x="1267" d="M27 0l536 1366h144l534 -1366h-143l-164 432h-602l-162 -432h-143zM348 1534v174h139v-174h-139zM373 539h524l-264 698zM780 1534v174h140v-174h-140z" />
<glyph unicode="&#xc5;" horiz-adv-x="1267" d="M27 0l536 1366h144l534 -1366h-143l-164 432h-602l-162 -432h-143zM373 539h524l-264 698zM463 1640q0 72 50.5 122t123.5 50q69 0 118.5 -50.5t49.5 -119.5q0 -70 -50.5 -121t-121.5 -51q-69 0 -119.5 50.5t-50.5 119.5zM539 1640q0 -38 28 -66t66 -28q40 0 68 28t28 66 q0 40 -28 68.5t-66 28.5q-40 0 -68 -28.5t-28 -68.5z" />
<glyph unicode="&#xc6;" horiz-adv-x="1789" d="M27 0l526 1366h1135v-117h-717v-489h659v-109h-659v-534h735v-117h-870v424h-514l-160 -424h-135zM365 535h471v714h-203z" />
<glyph unicode="&#xc7;" horiz-adv-x="1366" d="M106 692q0 266 125 451q171 250 504 250q213 0 347.5 -105t185.5 -311h-133q-94 299 -406 299q-227 0 -356 -160t-129 -440q0 -269 129.5 -428.5t347.5 -159.5q173 0 293 109t143 288h131q-26 -229 -179 -370.5t-376 -141.5l-53 -90q39 8 59 8q63 0 104.5 -36.5 t41.5 -92.5q0 -70 -54.5 -114.5t-140.5 -44.5q-78 0 -180 39l27 59q78 -33 141 -33q46 0 77 25.5t31 62.5q0 32 -27 53t-67 21q-30 0 -82 -16l-30 30l84 129q-119 15 -195.5 46t-144.5 90q-105 91 -161.5 242t-56.5 341z" />
<glyph unicode="&#xc8;" horiz-adv-x="1183" d="M164 0v1366h917v-117h-780v-493h717v-111h-717v-530h799v-115h-936zM412 1747h163l140 -252h-99z" />
<glyph unicode="&#xc9;" horiz-adv-x="1183" d="M164 0v1366h917v-117h-780v-493h717v-111h-717v-530h799v-115h-936zM528 1495l140 252h163l-204 -252h-99z" />
<glyph unicode="&#xca;" horiz-adv-x="1183" d="M164 0v1366h917v-117h-780v-493h717v-111h-717v-530h799v-115h-936zM346 1497l203 248h145l201 -248h-133l-137 174l-150 -174h-129z" />
<glyph unicode="&#xcb;" horiz-adv-x="1183" d="M164 0v1366h917v-117h-780v-493h717v-111h-717v-530h799v-115h-936zM334 1534v174h139v-174h-139zM766 1534v174h139v-174h-139z" />
<glyph unicode="&#xcc;" horiz-adv-x="466" d="M0 1747h164l139 -252h-98zM164 0v1366h139v-1366h-139z" />
<glyph unicode="&#xcd;" horiz-adv-x="466" d="M164 0v1366h139v-1366h-139zM164 1495l139 252h164l-205 -252h-98z" />
<glyph unicode="&#xce;" horiz-adv-x="466" d="M-6 1497l170 248h143l166 -248h-125l-110 174l-121 -174h-123zM164 0v1366h139v-1366h-139z" />
<glyph unicode="&#xcf;" horiz-adv-x="466" d="M53 1534v174h125v-174h-125zM164 0v1366h139v-1366h-139zM289 1534v174h125v-174h-125z" />
<glyph unicode="&#xd0;" horiz-adv-x="1355" d="M14 666v110h150v590h454q160 0 238 -15.5t145 -58.5q248 -167 248 -596q0 -229 -70.5 -389.5t-205.5 -238.5q-65 -38 -140.5 -53t-207.5 -15h-461v666h-150zM303 117h311q127 0 194.5 17t123.5 63q86 70 133 202t47 301q0 184 -57.5 316t-161.5 188q-50 26 -108 35.5 t-175 9.5h-307v-473h428v-110h-428v-549z" />
<glyph unicode="&#xd1;" horiz-adv-x="1359" d="M164 0v1366h135l776 -1167v1167h121v-1366h-135l-776 1169v-1169h-121zM391 1524q15 91 60 138.5t116 47.5q54 0 127 -37q69 -35 89.5 -42t45.5 -7q69 0 93 94h73q-35 -186 -168 -186q-35 0 -68.5 12t-129.5 58q-35 18 -70 18q-37 0 -60 -22.5t-36 -73.5h-72z" />
<glyph unicode="&#xd2;" horiz-adv-x="1474" d="M106 680q0 134 37 258.5t105 220.5q86 120 205.5 177t283.5 57q167 0 286 -57t204 -177q141 -197 141 -489q0 -318 -171 -507.5t-458 -189.5q-293 0 -463 190t-170 517zM244 686q0 -280 131.5 -438t363.5 -158q227 0 359.5 158t132.5 430q0 280 -132 439t-362 159 q-229 0 -361 -158t-132 -432zM530 1747h164l140 -252h-99z" />
<glyph unicode="&#xd3;" horiz-adv-x="1474" d="M106 680q0 134 37 258.5t105 220.5q86 120 205.5 177t283.5 57q167 0 286 -57t204 -177q141 -197 141 -489q0 -318 -171 -507.5t-458 -189.5q-293 0 -463 190t-170 517zM244 686q0 -280 131.5 -438t363.5 -158q227 0 359.5 158t132.5 430q0 280 -132 439t-362 159 q-229 0 -361 -158t-132 -432zM641 1495l139 252h164l-205 -252h-98z" />
<glyph unicode="&#xd4;" horiz-adv-x="1474" d="M106 680q0 134 37 258.5t105 220.5q86 120 205.5 177t283.5 57q167 0 286 -57t204 -177q141 -197 141 -489q0 -318 -171 -507.5t-458 -189.5q-293 0 -463 190t-170 517zM244 686q0 -280 131.5 -438t363.5 -158q227 0 359.5 158t132.5 430q0 280 -132 439t-362 159 q-229 0 -361 -158t-132 -432zM463 1497l203 248h145l201 -248h-133l-138 174l-149 -174h-129z" />
<glyph unicode="&#xd5;" horiz-adv-x="1474" d="M106 680q0 134 37 258.5t105 220.5q86 120 205.5 177t283.5 57q167 0 286 -57t204 -177q141 -197 141 -489q0 -318 -171 -507.5t-458 -189.5q-293 0 -463 190t-170 517zM244 686q0 -280 131.5 -438t363.5 -158q227 0 359.5 158t132.5 430q0 280 -132 439t-362 159 q-229 0 -361 -158t-132 -432zM449 1524q15 91 60 138.5t116 47.5q54 0 127 -37q69 -35 89.5 -42t45.5 -7q68 0 92 94h74q-35 -186 -168 -186q-35 0 -69 12t-130 58q-34 18 -70 18q-37 0 -60 -22.5t-36 -73.5h-71z" />
<glyph unicode="&#xd6;" horiz-adv-x="1474" d="M106 680q0 134 37 258.5t105 220.5q86 120 205.5 177t283.5 57q167 0 286 -57t204 -177q141 -197 141 -489q0 -318 -171 -507.5t-458 -189.5q-293 0 -463 190t-170 517zM244 686q0 -280 131.5 -438t363.5 -158q227 0 359.5 158t132.5 430q0 280 -132 439t-362 159 q-229 0 -361 -158t-132 -432zM453 1534v174h139v-174h-139zM885 1534v174h139v-174h-139z" />
<glyph unicode="&#xd7;" d="M217 428l254 254l-254 256l80 80l256 -254l254 254l80 -80l-254 -256l254 -254l-80 -80l-254 254l-256 -254z" />
<glyph unicode="&#xd8;" horiz-adv-x="1474" d="M96 20l154 177q-74 103 -107.5 217t-33.5 262q0 324 169.5 519.5t452.5 195.5q269 0 432 -156l148 166l75 -70l-157 -178q139 -198 139 -487q0 -321 -169.5 -508t-461.5 -187q-131 0 -227 34.5t-191 115.5l-147 -168zM246 680q0 -217 92 -381l741 838q-120 135 -331 135 q-285 0 -406 -205q-96 -158 -96 -387zM406 219q121 -133 337 -133q224 0 356 159t132 429q0 229 -90 377z" />
<glyph unicode="&#xd9;" horiz-adv-x="1308" d="M150 485v881h137v-874q0 -107 9 -157t36 -95q43 -71 127 -110.5t194 -39.5q127 0 215 49.5t125 141.5q16 44 21.5 89.5t5.5 135.5v860h137v-870q0 -207 -72 -322q-63 -97 -175.5 -149t-260.5 -52q-164 0 -284.5 63t-171.5 175q-43 92 -43 274zM446 1747h164l140 -252h-99 z" />
<glyph unicode="&#xda;" horiz-adv-x="1308" d="M150 485v881h137v-874q0 -107 9 -157t36 -95q43 -71 127 -110.5t194 -39.5q127 0 215 49.5t125 141.5q16 44 21.5 89.5t5.5 135.5v860h137v-870q0 -207 -72 -322q-63 -97 -175.5 -149t-260.5 -52q-164 0 -284.5 63t-171.5 175q-43 92 -43 274zM557 1495l139 252h164 l-205 -252h-98z" />
<glyph unicode="&#xdb;" horiz-adv-x="1308" d="M150 485v881h137v-874q0 -107 9 -157t36 -95q43 -71 127 -110.5t194 -39.5q127 0 215 49.5t125 141.5q16 44 21.5 89.5t5.5 135.5v860h137v-870q0 -207 -72 -322q-63 -97 -175.5 -149t-260.5 -52q-164 0 -284.5 63t-171.5 175q-43 92 -43 274zM379 1497l203 248h145 l201 -248h-133l-138 174l-149 -174h-129z" />
<glyph unicode="&#xdc;" horiz-adv-x="1308" d="M150 485v881h137v-874q0 -107 9 -157t36 -95q43 -71 127 -110.5t194 -39.5q127 0 215 49.5t125 141.5q16 44 21.5 89.5t5.5 135.5v860h137v-870q0 -207 -72 -322q-63 -97 -175.5 -149t-260.5 -52q-164 0 -284.5 63t-171.5 175q-43 92 -43 274zM369 1534v174h139v-174 h-139zM801 1534v174h139v-174h-139z" />
<glyph unicode="&#xdd;" horiz-adv-x="1183" d="M14 1366h168l414 -637l418 637h155l-505 -766v-600h-138v600zM496 1495l139 252h164l-205 -252h-98z" />
<glyph unicode="&#xde;" horiz-adv-x="1187" d="M164 0v1366h135v-205h395q116 0 189.5 -21t126.5 -69q110 -101 110 -293q0 -94 -32.5 -172t-90.5 -125q-59 -47 -138.5 -67.5t-209.5 -20.5h-350v-393h-135zM299 512h307q123 0 178.5 8.5t96.5 34.5q49 31 75.5 89.5t26.5 135.5q0 132 -63 195q-37 37 -97 52t-166 15 h-358v-530z" />
<glyph unicode="&#xdf;" horiz-adv-x="1046" d="M150 0v950q0 119 6.5 170t27.5 94q38 83 128.5 131t207.5 48q161 0 259 -91.5t98 -240.5q0 -98 -41.5 -165.5t-130.5 -117.5q54 -22 83 -39t56 -43q108 -97 108 -293q0 -197 -112 -314.5t-299 -117.5q-59 0 -150 23v108q82 -26 137 -26q134 0 216.5 89.5t82.5 235.5 q0 151 -84.5 233.5t-238.5 82.5q-30 0 -86 -6v104q40 -6 61 -6q131 0 201 66t70 190q0 107 -61 164t-175 57q-182 0 -227 -145q-15 -59 -15 -183v-958h-122z" />
<glyph unicode="&#xe0;" horiz-adv-x="1038" d="M88 254q0 127 74 201q41 43 93.5 64t154.5 36l243 37q43 6 62 10.5t32 18.5t15 32.5t2 59.5q0 101 -59.5 146.5t-190.5 45.5q-126 0 -184.5 -50t-67.5 -165h-133q11 156 108.5 238t274.5 82q117 0 204 -34t128 -95q24 -36 31.5 -77.5t7.5 -139.5v-492q0 -55 12.5 -75.5 t46.5 -20.5q17 0 53 8v-84q-55 -18 -92 -18q-72 0 -104 33.5t-39 119.5q-83 -90 -162 -126t-195 -36q-149 0 -232 74.5t-83 206.5zM211 260q0 -86 56 -134t155 -48q90 0 165 34t122 97q29 36 40 85t11 136v78l-336 -51q-114 -19 -163.5 -64.5t-49.5 -132.5zM307 1413h164 l139 -252h-98z" />
<glyph unicode="&#xe1;" horiz-adv-x="1038" d="M88 254q0 127 74 201q41 43 93.5 64t154.5 36l243 37q43 6 62 10.5t32 18.5t15 32.5t2 59.5q0 101 -59.5 146.5t-190.5 45.5q-126 0 -184.5 -50t-67.5 -165h-133q11 156 108.5 238t274.5 82q117 0 204 -34t128 -95q24 -36 31.5 -77.5t7.5 -139.5v-492q0 -55 12.5 -75.5 t46.5 -20.5q17 0 53 8v-84q-55 -18 -92 -18q-72 0 -104 33.5t-39 119.5q-83 -90 -162 -126t-195 -36q-149 0 -232 74.5t-83 206.5zM211 260q0 -86 56 -134t155 -48q90 0 165 34t122 97q29 36 40 85t11 136v78l-336 -51q-114 -19 -163.5 -64.5t-49.5 -132.5zM424 1161 l139 252h164l-205 -252h-98z" />
<glyph unicode="&#xe2;" horiz-adv-x="1038" d="M88 254q0 127 74 201q41 43 93.5 64t154.5 36l243 37q43 6 62 10.5t32 18.5t15 32.5t2 59.5q0 101 -59.5 146.5t-190.5 45.5q-126 0 -184.5 -50t-67.5 -165h-133q11 156 108.5 238t274.5 82q117 0 204 -34t128 -95q24 -36 31.5 -77.5t7.5 -139.5v-492q0 -55 12.5 -75.5 t46.5 -20.5q17 0 53 8v-84q-55 -18 -92 -18q-72 0 -104 33.5t-39 119.5q-83 -90 -162 -126t-195 -36q-149 0 -232 74.5t-83 206.5zM211 260q0 -86 56 -134t155 -48q90 0 165 34t122 97q29 36 40 85t11 136v78l-336 -51q-114 -19 -163.5 -64.5t-49.5 -132.5zM248 1161 l203 250h145l201 -250h-133l-138 176l-149 -176h-129z" />
<glyph unicode="&#xe3;" horiz-adv-x="1038" d="M88 254q0 127 74 201q41 43 93.5 64t154.5 36l243 37q43 6 62 10.5t32 18.5t15 32.5t2 59.5q0 101 -59.5 146.5t-190.5 45.5q-126 0 -184.5 -50t-67.5 -165h-133q11 156 108.5 238t274.5 82q117 0 204 -34t128 -95q24 -36 31.5 -77.5t7.5 -139.5v-492q0 -55 12.5 -75.5 t46.5 -20.5q17 0 53 8v-84q-55 -18 -92 -18q-72 0 -104 33.5t-39 119.5q-83 -90 -162 -126t-195 -36q-149 0 -232 74.5t-83 206.5zM211 260q0 -86 56 -134t155 -48q90 0 165 34t122 97q29 36 40 85t11 136v78l-336 -51q-114 -19 -163.5 -64.5t-49.5 -132.5zM221 1192 q15 91 60 138.5t116 47.5q52 0 127 -37q70 -34 90 -41.5t45 -7.5q69 0 93 92h73q-37 -184 -168 -184q-35 0 -68.5 12t-129.5 58q-34 18 -70 18q-37 0 -60 -22.5t-36 -73.5h-72z" />
<glyph unicode="&#xe4;" horiz-adv-x="1038" d="M88 254q0 127 74 201q41 43 93.5 64t154.5 36l243 37q43 6 62 10.5t32 18.5t15 32.5t2 59.5q0 101 -59.5 146.5t-190.5 45.5q-126 0 -184.5 -50t-67.5 -165h-133q11 156 108.5 238t274.5 82q117 0 204 -34t128 -95q24 -36 31.5 -77.5t7.5 -139.5v-492q0 -55 12.5 -75.5 t46.5 -20.5q17 0 53 8v-84q-55 -18 -92 -18q-72 0 -104 33.5t-39 119.5q-83 -90 -162 -126t-195 -36q-149 0 -232 74.5t-83 206.5zM211 260q0 -86 56 -134t155 -48q90 0 165 34t122 97q29 36 40 85t11 136v78l-336 -51q-114 -19 -163.5 -64.5t-49.5 -132.5zM276 1196v174 h140v-174h-140zM627 1196v174h139v-174h-139z" />
<glyph unicode="&#xe5;" horiz-adv-x="1038" d="M88 254q0 127 74 201q41 43 93.5 64t154.5 36l243 37q43 6 62 10.5t32 18.5t15 32.5t2 59.5q0 101 -59.5 146.5t-190.5 45.5q-126 0 -184.5 -50t-67.5 -165h-133q11 156 108.5 238t274.5 82q117 0 204 -34t128 -95q24 -36 31.5 -77.5t7.5 -139.5v-492q0 -55 12.5 -75.5 t46.5 -20.5q17 0 53 8v-84q-55 -18 -92 -18q-72 0 -104 33.5t-39 119.5q-83 -90 -162 -126t-195 -36q-149 0 -232 74.5t-83 206.5zM211 260q0 -86 56 -134t155 -48q90 0 165 34t122 97q29 36 40 85t11 136v78l-336 -51q-114 -19 -163.5 -64.5t-49.5 -132.5zM348 1286 q0 72 50.5 122t123.5 50q69 0 118.5 -50.5t49.5 -119.5q0 -70 -51 -121t-121 -51q-69 0 -119.5 50.5t-50.5 119.5zM424 1288q0 -40 28 -68t66 -28q40 0 68 28t28 68t-28 68t-66 28q-40 0 -68 -28t-28 -68z" />
<glyph unicode="&#xe6;" horiz-adv-x="1658" d="M88 260q0 88 44.5 156.5t119.5 97.5q51 20 105 29.5t190 23.5q56 6 80 8.5t51.5 10t34 11.5t14.5 19.5t8 27.5v42q0 72 -16 111q-47 110 -219 110q-125 0 -188 -53.5t-70 -167.5h-123q19 157 120 240.5t271 83.5q109 0 181.5 -37t135.5 -125q75 86 150 124t172 38 q134 0 230.5 -67t142.5 -191q43 -113 43 -287h-721q5 -99 14.5 -150t32.5 -92q40 -68 109 -106.5t151 -38.5q102 0 181.5 62.5t105.5 162.5h118q-60 -167 -162 -248.5t-253 -81.5q-118 0 -204 52.5t-149 162.5q-73 -115 -159 -165t-211 -50q-152 0 -241 77.5t-89 209.5z M207 260q0 -88 57 -136t160 -48q148 0 227.5 81.5t79.5 233.5l-2 113q-69 -18 -164 -29q-121 -15 -169 -24.5t-87 -26.5q-102 -48 -102 -164zM846 567h600q-6 163 -83.5 251.5t-215.5 88.5q-94 0 -170 -47t-105 -123q-23 -61 -26 -170z" />
<glyph unicode="&#xe7;" horiz-adv-x="1011" d="M94 479q0 239 126 385t333 146q161 0 263.5 -88.5t125.5 -247.5h-123q-12 110 -80 168.5t-184 58.5q-157 0 -246.5 -110.5t-89.5 -305.5q0 -186 88.5 -295.5t237.5 -109.5q116 0 188.5 68.5t85.5 189.5h121q-35 -169 -134 -262.5t-255 -102.5l-57 -90q39 8 59 8 q63 0 104 -36.5t41 -92.5q0 -71 -54 -115t-140 -44q-80 0 -180 39l26 57q81 -31 142 -31q46 0 77 25.5t31 62.5q0 32 -27 53t-67 21q-30 0 -82 -16l-31 28l88 133q-93 12 -154 42t-112 89q-58 67 -89.5 164.5t-31.5 208.5z" />
<glyph unicode="&#xe8;" horiz-adv-x="1046" d="M94 475q0 243 120 389t321 146q152 0 254 -81t139 -229q14 -62 24 -227h-741q1 -192 84 -294.5t235 -102.5q117 0 193 58.5t104 172.5h125q-44 -113 -88 -174q-56 -76 -144.5 -118t-193.5 -42q-201 0 -316.5 134.5t-115.5 367.5zM217 578h610q-8 159 -82 244t-206 85 q-79 0 -146 -34.5t-108 -96.5q-28 -44 -43 -86t-25 -112zM330 1413h164l139 -252h-98z" />
<glyph unicode="&#xe9;" horiz-adv-x="1046" d="M94 475q0 243 120 389t321 146q152 0 254 -81t139 -229q14 -62 24 -227h-741q1 -192 84 -294.5t235 -102.5q117 0 193 58.5t104 172.5h125q-44 -113 -88 -174q-56 -76 -144.5 -118t-193.5 -42q-201 0 -316.5 134.5t-115.5 367.5zM217 578h610q-8 159 -82 244t-206 85 q-79 0 -146 -34.5t-108 -96.5q-28 -44 -43 -86t-25 -112zM446 1161l140 252h164l-205 -252h-99z" />
<glyph unicode="&#xea;" horiz-adv-x="1046" d="M94 475q0 243 120 389t321 146q152 0 254 -81t139 -229q14 -62 24 -227h-741q1 -192 84 -294.5t235 -102.5q117 0 193 58.5t104 172.5h125q-44 -113 -88 -174q-56 -76 -144.5 -118t-193.5 -42q-201 0 -316.5 134.5t-115.5 367.5zM217 578h610q-8 159 -82 244t-206 85 q-79 0 -146 -34.5t-108 -96.5q-28 -44 -43 -86t-25 -112zM268 1161l203 250h145l201 -250h-133l-137 176l-150 -176h-129z" />
<glyph unicode="&#xeb;" horiz-adv-x="1046" d="M94 475q0 243 120 389t321 146q152 0 254 -81t139 -229q14 -62 24 -227h-741q1 -192 84 -294.5t235 -102.5q117 0 193 58.5t104 172.5h125q-44 -113 -88 -174q-56 -76 -144.5 -118t-193.5 -42q-201 0 -316.5 134.5t-115.5 367.5zM217 578h610q-8 159 -82 244t-206 85 q-79 0 -146 -34.5t-108 -96.5q-28 -44 -43 -86t-25 -112zM299 1196v174h139v-174h-139zM649 1196v174h139v-174h-139z" />
<glyph unicode="&#xec;" horiz-adv-x="423" d="M-8 1413h158l133 -252h-99zM150 0v983h124v-983h-124z" />
<glyph unicode="&#xed;" horiz-adv-x="423" d="M143 1161l133 252h158l-192 -252h-99zM152 0v983h124v-983h-124z" />
<glyph unicode="&#xee;" horiz-adv-x="423" d="M-20 1161l161 250h146l159 -250h-124l-105 176l-115 -176h-122zM152 0v983h124v-983h-124z" />
<glyph unicode="&#xef;" horiz-adv-x="423" d="M25 1196v174h139v-174h-139zM150 0v983h124v-983h-124zM260 1196v174h139v-174h-139z" />
<glyph unicode="&#xf0;" horiz-adv-x="1095" d="M94 479q0 239 125 385t330 146q58 0 133 -21q-54 73 -154 199l-149 -111l-47 72l143 106q-75 96 -113 142l64 53q10 -11 50.5 -56.5t72.5 -82.5l158 116l49 -69l-150 -111q127 -140 191 -235q116 -166 160 -282.5t44 -254.5q0 -231 -122.5 -366.5t-331.5 -135.5 t-331 136.5t-122 369.5zM217 485q0 -194 87 -300.5t245 -106.5q155 0 242.5 106t87.5 295q0 198 -88.5 312t-241.5 114q-154 0 -243 -113t-89 -307z" />
<glyph unicode="&#xf1;" horiz-adv-x="1077" d="M150 0v983h122v-119q72 82 142 114t174 32q123 0 204 -48.5t113 -140.5q21 -67 21 -186v-635h-123v629q0 118 -25 172q-26 51 -80.5 78.5t-128.5 27.5q-95 0 -166.5 -45t-105.5 -127q-25 -68 -25 -190v-545h-122zM223 1192q15 91 60 138.5t116 47.5q52 0 127 -37 q69 -34 90 -41.5t46 -7.5q68 0 92 92h73q-37 -184 -168 -184q-35 0 -68.5 12t-129.5 58q-35 18 -70 18q-37 0 -60 -22.5t-36 -73.5h-72z" />
<glyph unicode="&#xf2;" horiz-adv-x="1095" d="M94 485q0 235 125.5 380t329.5 145t328 -146t124 -385q0 -233 -121.5 -369.5t-330.5 -136.5q-212 0 -333.5 136.5t-121.5 375.5zM217 485q0 -194 87 -300.5t245 -106.5q155 0 242.5 106t87.5 295q0 198 -88.5 312t-241.5 114q-154 0 -243 -113t-89 -307zM342 1413h164 l139 -252h-98z" />
<glyph unicode="&#xf3;" horiz-adv-x="1095" d="M94 485q0 235 125.5 380t329.5 145t328 -146t124 -385q0 -233 -121.5 -369.5t-330.5 -136.5q-212 0 -333.5 136.5t-121.5 375.5zM217 485q0 -194 87 -300.5t245 -106.5q155 0 242.5 106t87.5 295q0 198 -88.5 312t-241.5 114q-154 0 -243 -113t-89 -307zM457 1161 l139 252h164l-205 -252h-98z" />
<glyph unicode="&#xf4;" horiz-adv-x="1095" d="M94 485q0 235 125.5 380t329.5 145t328 -146t124 -385q0 -233 -121.5 -369.5t-330.5 -136.5q-212 0 -333.5 136.5t-121.5 375.5zM217 485q0 -194 87 -300.5t245 -106.5q155 0 242.5 106t87.5 295q0 198 -88.5 312t-241.5 114q-154 0 -243 -113t-89 -307zM274 1161 l203 250h146l200 -250h-133l-137 176l-150 -176h-129z" />
<glyph unicode="&#xf5;" horiz-adv-x="1095" d="M94 485q0 235 125.5 380t329.5 145t328 -146t124 -385q0 -233 -121.5 -369.5t-330.5 -136.5q-212 0 -333.5 136.5t-121.5 375.5zM217 485q0 -194 87 -300.5t245 -106.5q155 0 242.5 106t87.5 295q0 198 -88.5 312t-241.5 114q-154 0 -243 -113t-89 -307zM260 1192 q15 91 60 138.5t116 47.5q52 0 127 -37q70 -34 90 -41.5t45 -7.5q69 0 93 92h73q-37 -184 -168 -184q-35 0 -68.5 12t-129.5 58q-34 18 -70 18q-37 0 -60 -22.5t-36 -73.5h-72z" />
<glyph unicode="&#xf6;" horiz-adv-x="1095" d="M94 485q0 235 125.5 380t329.5 145t328 -146t124 -385q0 -233 -121.5 -369.5t-330.5 -136.5q-212 0 -333.5 136.5t-121.5 375.5zM217 485q0 -194 87 -300.5t245 -106.5q155 0 242.5 106t87.5 295q0 198 -88.5 312t-241.5 114q-154 0 -243 -113t-89 -307zM303 1196v174 h139v-174h-139zM653 1196v174h140v-174h-140z" />
<glyph unicode="&#xf7;" d="M199 629v108h708v-108h-708zM477 373q0 32 23 55t55 23q31 0 53.5 -22.5t22.5 -53.5q0 -32 -23 -55t-55 -23q-31 0 -53.5 22.5t-22.5 53.5zM477 991q0 32 23 55t55 23q31 0 53.5 -22.5t22.5 -53.5q0 -32 -23 -55t-55 -23q-31 0 -53.5 22.5t-22.5 53.5z" />
<glyph unicode="&#xf8;" horiz-adv-x="1093" d="M76 14l110 129q-92 126 -92 322q0 249 123.5 397t329.5 148q85 0 153.5 -26t139.5 -85l108 123l70 -64l-117 -135q98 -118 98 -338q0 -251 -118.5 -382.5t-345.5 -131.5q-170 0 -285 103l-105 -121zM219 479q0 -69 8 -114t33 -111l6 -18l500 579q-94 88 -219 88 q-152 0 -240 -114.5t-88 -309.5zM326 160q47 -44 98.5 -64t120.5 -20q160 0 247 104.5t87 296.5q0 164 -60 258z" />
<glyph unicode="&#xf9;" horiz-adv-x="1077" d="M150 375v608h122v-614q0 -86 5 -120t20 -67q26 -51 80.5 -78.5t128.5 -27.5q156 0 237 110q60 83 60 224v573h123v-983h-123v119q-72 -82 -142 -114t-174 -32q-123 0 -204 48.5t-113 140.5q-12 37 -16 78t-4 135zM332 1413h164l139 -252h-98z" />
<glyph unicode="&#xfa;" horiz-adv-x="1077" d="M150 375v608h122v-614q0 -86 5 -120t20 -67q26 -51 80.5 -78.5t128.5 -27.5q156 0 237 110q60 83 60 224v573h123v-983h-123v119q-72 -82 -142 -114t-174 -32q-123 0 -204 48.5t-113 140.5q-12 37 -16 78t-4 135zM434 1161l139 252h164l-205 -252h-98z" />
<glyph unicode="&#xfb;" horiz-adv-x="1077" d="M150 375v608h122v-614q0 -86 5 -120t20 -67q26 -51 80.5 -78.5t128.5 -27.5q156 0 237 110q60 83 60 224v573h123v-983h-123v119q-72 -82 -142 -114t-174 -32q-123 0 -204 48.5t-113 140.5q-12 37 -16 78t-4 135zM264 1161l203 250h145l201 -250h-133l-137 176l-150 -176 h-129z" />
<glyph unicode="&#xfc;" horiz-adv-x="1077" d="M150 375v608h122v-614q0 -86 5 -120t20 -67q26 -51 80.5 -78.5t128.5 -27.5q156 0 237 110q60 83 60 224v573h123v-983h-123v119q-72 -82 -142 -114t-174 -32q-123 0 -204 48.5t-113 140.5q-12 37 -16 78t-4 135zM293 1196v174h139v-174h-139zM643 1196v174h139v-174 h-139z" />
<glyph unicode="&#xfd;" horiz-adv-x="901" d="M14 983h133l310 -817l305 817h127l-447 -1149q-41 -106 -92 -146t-145 -40q-33 0 -82 8v108q55 -14 82 -14q95 0 147 135l47 127zM354 1161l140 252h163l-204 -252h-99z" />
<glyph unicode="&#xfe;" horiz-adv-x="1120" d="M150 -352v1718h122v-524q67 90 142.5 129t183.5 39q187 0 306.5 -143.5t119.5 -366.5q0 -103 -30.5 -203t-82.5 -170q-52 -73 -139.5 -113.5t-193.5 -40.5q-103 0 -174 35t-132 117v-477h-122zM266 500q0 -191 64 -295q38 -60 104 -94.5t144 -34.5q148 0 235.5 112 t87.5 301q0 197 -82.5 307.5t-230.5 110.5q-79 0 -146.5 -35t-111.5 -98q-64 -94 -64 -274z" />
<glyph unicode="&#xff;" horiz-adv-x="901" d="M14 983h133l310 -817l305 817h127l-447 -1149q-41 -106 -92 -146t-145 -40q-33 0 -82 8v108q55 -14 82 -14q95 0 147 135l47 127zM207 1196v174h139v-174h-139zM557 1196v174h139v-174h-139z" />
<glyph unicode="&#x152;" horiz-adv-x="2033" d="M106 674q0 325 167 522t442 197q114 0 196.5 -36.5t157.5 -119.5v129h864v-117h-729v-493h670v-109h-670v-530h744v-117h-879v143q-66 -91 -148 -130.5t-204 -39.5q-142 0 -269.5 62.5t-207.5 171.5q-134 179 -134 467zM244 690q0 -270 129.5 -436t341.5 -166 q96 0 180 40.5t127 107.5q31 46 39 93.5t8 178.5v430q0 81 -16.5 134t-53.5 95q-97 111 -282 111q-215 0 -344 -160.5t-129 -427.5z" />
<glyph unicode="&#x153;" horiz-adv-x="1763" d="M94 492q0 234 119.5 376t316.5 142q83 0 157 -26.5t124 -72.5q45 -42 88 -123q72 116 160 170t205 54q127 0 221 -65t141 -187q38 -97 43 -291h-715v-29q0 -161 86.5 -262.5t223.5 -101.5q101 0 178 62t108 169h115q-25 -99 -76 -166q-66 -90 -143 -129t-189 -39 q-123 0 -209 54t-157 174q-114 -228 -363 -228q-201 0 -317.5 139.5t-116.5 379.5zM215 506q0 -212 80 -322t235 -110q146 0 229 107.5t83 299.5q0 205 -80.5 315.5t-229.5 110.5q-144 0 -231 -104q-86 -103 -86 -297zM956 571h592q-1 157 -78 248.5t-206 91.5 q-127 0 -209 -90t-99 -250z" />
<glyph unicode="&#x178;" horiz-adv-x="1183" d="M14 1366h168l414 -637l418 637h155l-505 -766v-600h-138v600zM307 1534v174h139v-174h-139zM739 1534v174h140v-174h-140z" />
<glyph unicode="&#x2c6;" horiz-adv-x="1024" d="M238 1161l202 250h146l200 -250h-133l-137 176l-149 -176h-129z" />
<glyph unicode="&#x2dc;" horiz-adv-x="1024" d="M211 1192q15 91 60 138.5t116 47.5q52 0 127 -37q70 -34 90 -41.5t45 -7.5q68 0 92 92h74q-37 -184 -168 -184q-35 0 -68.5 12t-129.5 58q-34 18 -70 18q-37 0 -60 -22.5t-36 -73.5h-72z" />
<glyph unicode="&#x2000;" horiz-adv-x="906" />
<glyph unicode="&#x2001;" horiz-adv-x="1812" />
<glyph unicode="&#x2002;" horiz-adv-x="906" />
<glyph unicode="&#x2003;" horiz-adv-x="1812" />
<glyph unicode="&#x2004;" horiz-adv-x="604" />
<glyph unicode="&#x2005;" horiz-adv-x="453" />
<glyph unicode="&#x2006;" horiz-adv-x="302" />
<glyph unicode="&#x2007;" horiz-adv-x="302" />
<glyph unicode="&#x2008;" horiz-adv-x="226" />
<glyph unicode="&#x2009;" horiz-adv-x="362" />
<glyph unicode="&#x200a;" horiz-adv-x="100" />
<glyph unicode="&#x2010;" horiz-adv-x="436" d="M0 434v117h436v-117h-436z" />
<glyph unicode="&#x2011;" horiz-adv-x="436" d="M0 434v117h436v-117h-436z" />
<glyph unicode="&#x2012;" horiz-adv-x="436" d="M0 434v117h436v-117h-436z" />
<glyph unicode="&#x2013;" d="M164 434v117h778v-117h-778z" />
<glyph unicode="&#x2014;" horiz-adv-x="1310" d="M0 434v117h1311v-117h-1311z" />
<glyph unicode="&#x2018;" horiz-adv-x="444" d="M150 983v150q0 131 32 194.5t111 91.5v-82q-39 -17 -54.5 -51t-15.5 -102q0 -17 2 -29h68v-172h-143z" />
<glyph unicode="&#x2019;" horiz-adv-x="444" d="M154 950v78q37 17 51 49.5t14 98.5v26h-65v164h137v-141q0 -124 -31 -185.5t-106 -89.5z" />
<glyph unicode="&#x201a;" horiz-adv-x="444" d="M154 0v164h137v-141q0 -125 -30.5 -186t-106.5 -89v78q37 17 51 49t14 98v27h-65z" />
<glyph unicode="&#x201c;" horiz-adv-x="696" d="M150 983v150q0 131 32 194.5t111 91.5v-82q-39 -17 -54.5 -51t-15.5 -102q0 -17 2 -29h68v-172h-143zM401 983v150q0 130 32 194t112 92v-82q-39 -17 -54.5 -51t-15.5 -102q0 -17 2 -29h68v-172h-144z" />
<glyph unicode="&#x201d;" horiz-adv-x="696" d="M150 930v82q38 17 53.5 50.5t15.5 102.5q0 17 -2 29h-67v172h143v-149q0 -131 -32 -195t-111 -92zM401 930v82q39 17 54.5 51t15.5 102q0 17 -2 29h-68v172h144v-149q0 -131 -32.5 -195t-111.5 -92z" />
<glyph unicode="&#x201e;" horiz-adv-x="696" d="M150 0v172h143v-149q0 -131 -32 -195t-111 -92v82q38 17 53.5 50.5t15.5 102.5q0 17 -2 29h-67zM401 0v172h144v-149q0 -131 -32.5 -195t-111.5 -92v82q39 17 54.5 51t15.5 102q0 17 -2 29h-68z" />
<glyph unicode="&#x2022;" horiz-adv-x="1366" d="M401 692q0 120 83.5 202.5t203.5 82.5q115 0 198 -84t83 -201t-83 -199.5t-200 -82.5q-118 0 -201.5 82.5t-83.5 199.5z" />
<glyph unicode="&#x2026;" horiz-adv-x="1331" d="M150 0v170h143v-170h-143zM594 0v170h143v-170h-143zM1036 0v170h144v-170h-144z" />
<glyph unicode="&#x202f;" horiz-adv-x="362" />
<glyph unicode="&#x2039;" horiz-adv-x="534" d="M96 436v107l322 280v-143l-213 -186l213 -185v-149z" />
<glyph unicode="&#x203a;" horiz-adv-x="534" d="M117 160v143l213 186l-213 185v149l321 -276v-107z" />
<glyph unicode="&#x205f;" horiz-adv-x="453" />
<glyph unicode="&#x2122;" horiz-adv-x="1587" d="M14 1286v80h617v-80h-260v-698h-95v698h-262zM733 588v778h111l274 -664l273 664h108v-778h-86v614l-250 -614h-86l-260 616v-616h-84z" />
<glyph unicode="&#x25fc;" horiz-adv-x="983" d="M0 0v983h983v-983h-983z" />
</font>
</defs>
</svg>
