<?xml version="1.0" encoding="utf-8"?>
<!-- Generator: Adobe Illustrator 18.1.1, SVG Export Plug-In . SVG Version: 6.00 Build 0)  -->
<!DOCTYPE svg PUBLIC "-//W3C//DTD SVG 1.1//EN" "http://www.w3.org/Graphics/SVG/1.1/DTD/svg11.dtd">
<svg version="1.1" id="Layer_1" xmlns="http://www.w3.org/2000/svg" xmlns:xlink="http://www.w3.org/1999/xlink" x="0px" y="0px"
	 viewBox="0 0 514 134" enable-background="new 0 0 514 134" xml:space="preserve">
<g>
	<path d="M155.3,109.5c-1.6,0-3.2-1.3-3.5-3l-7.4-40.4c-0.3-1.6-0.8-4.3-1.1-5.9c0,0-0.6-3.4-0.8-4.8c-0.2-1.4-0.7-3.7-1-5.2
		c-0.3-1.4-1.1-6.5-1.4-8c-0.3-1.5-0.5-1.8-0.4-0.8c0,1.1,0.2,3.7,0.3,5.2c0.1,1.4,0.2,4,0.2,5.6l0.1,7.9c0,1.6,0,4.3,0,6v40.3
		c0,1.7-1.4,3-3,3h-8c-1.7,0-3-1.3-3-3V27.3c0-1.6,1.3-3,3-3H146c1.6,0,3.2,1.3,3.5,3l3.7,22.4c0.3,1.6,0.7,4.3,0.9,5.9l1.9,15
		c0.2,1.6,0.5,1.6,0.7,0l2-15c0.2-1.6,0.7-4.3,0.9-5.9l3.7-22.4c0.3-1.6,1.8-3,3.5-3h16.8c1.6,0,3,1.4,3,3v79.1c0,1.7-1.4,3-3,3h-8
		c-1.6,0-3-1.3-3-3V68.2c0-1.7,0-4.3,0.1-6l0.6-19.7c0.1-1.6-0.1-2-0.3-0.7c-0.2,1.3-0.9,5.2-1.2,6.8l-2.3,12.7
		c-0.3,1.6-0.8,4.3-1.1,5.9l-7.2,39.3c-0.3,1.6-1.9,3-3.5,3H155.3z"/>
</g>
<g>
	<path d="M232.6,83c0,12.9-1,17.2-4.8,21.6c-3.4,4-9.3,6.1-16.5,6.1s-13-2.2-16.5-6.1c-3.8-4.3-4.8-8.7-4.8-21.6V50.7
		c0-12.9,1-17.2,4.8-21.6c3.4-4,9.3-6.1,16.5-6.1s13,2.2,16.5,6.1c3.8,4.3,4.8,8.7,4.8,21.6V83z M204.6,82.8
		c0,12.8,1.4,16.1,6.6,16.1c5.2,0,6.6-3.3,6.6-16.1V51c0-12.8-1.4-16.1-6.6-16.1c-5.2,0-6.6,3.3-6.6,16.1V82.8z"/>
</g>
<g>
	<path d="M248.6,109.6c-1.6,0-3.2-1.3-3.5-3l-13.2-79.2c-0.3-1.6,0.9-3,2.5-3h8.8c1.6,0,3.2,1.3,3.4,3l4.1,29.3
		c0.2,1.6,0.6,4.3,0.8,6l2.8,27.2c0.1,1.6,0.4,1.6,0.5,0l2.5-27.2c0.2-1.6,0.5-4.3,0.7-6l3.6-29.3c0.2-1.6,1.7-3,3.4-3h8.7
		c1.6,0,2.8,1.3,2.6,3l-11.8,79.2c-0.2,1.6-1.8,3-3.4,3H248.6z"/>
</g>
<g>
	<path d="M293.8,106.8c0,1.7-1.4,3-3,3h-8.7c-1.6,0-3-1.3-3-3V27.7c0-1.6,1.4-3,3-3h8.7c1.6,0,3,1.4,3,3V106.8z"/>
</g>
<g>
	<path fill="#EE2647" d="M336.6,35.1c0,1.6-1.4,3-3,3h-18.8c-1.6,0-3,1.3-3,3v15.6c0,1.6,1.4,3,3,3h17.4c1.6,0,3,1.3,3,3v6.4
		c0,1.7-1.4,3-3,3h-17.4c-1.6,0-3,1.3-3,3v17.9c0,1.7,1.4,3,3,3H335c1.6,0,3,1.3,3,3v7.7c0,1.7-1.4,3-3,3h-34.8c-1.6,0-3-1.3-3-3
		V27.5c0-1.6,1.4-3,3-3h33.4c1.6,0,3,1.4,3,3V35.1z"/>
</g>
<g>
	<path fill="#EE2647" d="M369.6,109.5c-1.6,0-3.2-1.3-3.5-3l-7.3-40.4c-0.3-1.6-0.8-4.3-1.1-5.9c0,0-0.6-3.4-0.8-4.8
		c-0.2-1.4-0.7-3.7-1-5.2c-0.3-1.4-1.1-6.5-1.4-8c-0.3-1.5-0.5-1.8-0.4-0.8c0,1.1,0.2,3.7,0.3,5.2c0.1,1.4,0.2,4,0.2,5.6l0.1,7.9
		c0,1.6,0,4.3,0,6v40.3c0,1.7-1.4,3-3,3h-8c-1.6,0-3-1.3-3-3V27.3c0-1.6,1.4-3,3-3h16.6c1.6,0,3.2,1.3,3.5,3l3.7,22.4
		c0.3,1.6,0.7,4.3,0.9,5.9l1.9,15c0.2,1.6,0.5,1.6,0.7,0l2-15c0.2-1.6,0.7-4.3,0.9-5.9l3.7-22.4c0.3-1.6,1.8-3,3.5-3h16.8
		c1.6,0,3,1.4,3,3v79.1c0,1.7-1.4,3-3,3h-8c-1.6,0-3-1.3-3-3V68.2c0-1.7,0-4.3,0.1-6l0.6-19.7c0.1-1.6-0.1-2-0.3-0.7
		c-0.2,1.3-0.9,5.2-1.2,6.8l-2.3,12.7c-0.3,1.6-0.8,4.3-1.1,5.9l-7.2,39.3c-0.3,1.6-1.9,3-3.5,3H369.6z"/>
</g>
<g>
	<path fill="#EE2647" d="M446.4,83c0,12.9-1,17.2-4.8,21.6c-3.4,4-9.3,6.1-16.5,6.1c-7.1,0-13-2.2-16.5-6.1
		c-3.8-4.3-4.8-8.7-4.8-21.6V50.7c0-12.9,1-17.2,4.8-21.6c3.4-4,9.3-6.1,16.5-6.1c7.1,0,13,2.2,16.5,6.1c3.8,4.3,4.8,8.7,4.8,21.6
		V83z M418.4,82.8c0,12.8,1.4,16.1,6.6,16.1s6.6-3.3,6.6-16.1V51c0-12.8-1.4-16.1-6.6-16.1s-6.6,3.3-6.6,16.1V82.8z"/>
</g>
<g>
	<path fill="#EE2647" d="M459.8,77.6c1.7,0,3,1.4,3,3v10c0,5.2,1.1,7.1,4.2,7.1c3.1,0,4.5-2.2,4.5-7.1V27.1c0-1.7,1.4-3,3-3h8.6
		c1.7,0,3,1.4,3,3v61.7c0,10-0.5,12.4-3.1,15.7c-2.9,3.8-8.6,6-15.8,6c-6.6,0-11.6-1.7-14.8-5c-2.7-2.8-3.7-6.6-3.7-13.7V80.7
		c0-1.7,1.4-3,3-3H459.8z"/>
</g>
<g>
	<path fill="#EE2647" d="M504.9,106.5c0,1.7-1.4,3-3,3h-8.7c-1.6,0-3-1.3-3-3V27.3c0-1.6,1.4-3,3-3h8.7c1.6,0,3,1.4,3,3V106.5z"/>
</g>
<g>
	<path fill="#EE2647" d="M54.4,103.6c-0.2,0-0.3,0-0.5-0.1c-9-2.3-16.8-7.8-22-15.5c-0.7-1-0.4-2.3,0.6-2.9c1-0.7,2.3-0.4,2.9,0.6
		c4.6,6.8,11.6,11.7,19.5,13.7c1.1,0.3,1.8,1.4,1.5,2.6C56.2,103,55.3,103.6,54.4,103.6z"/>
</g>
<g>
	<path fill="#EE2647" d="M73.6,103.1c-0.9,0-1.7-0.6-2-1.5c-0.3-1.1,0.3-2.3,1.4-2.6c7.7-2.4,14.2-7.4,18.5-14.3
		c0.6-1,1.9-1.3,2.9-0.7c1,0.6,1.3,1.9,0.7,2.9c-4.8,7.7-12.2,13.4-20.8,16C74,103.1,73.8,103.1,73.6,103.1z"/>
</g>
<g>
	<path d="M63.1,124.8C31.3,124.8,5.3,98.8,5.3,67S31.3,9.2,63.1,9.2s57.8,25.9,57.8,57.8S94.9,124.8,63.1,124.8z M63.1,16.7
		c-27.7,0-50.3,22.6-50.3,50.3s22.6,50.3,50.3,50.3s50.3-22.6,50.3-50.3S90.8,16.7,63.1,16.7z"/>
</g>
<g>
	<path fill="#EE2647" d="M63.1,75.4c-4.6,0-8.4-3.8-8.4-8.4s3.8-8.4,8.4-8.4s8.4,3.8,8.4,8.4S67.7,75.4,63.1,75.4z M63.1,62.8
		c-2.3,0-4.2,1.9-4.2,4.2s1.9,4.2,4.2,4.2s4.2-1.9,4.2-4.2S65.4,62.8,63.1,62.8z"/>
</g>
<g>
	<path d="M63.1,19.6c-8.3,0-15.1,6.8-15.1,15.1s6.8,15.1,15.1,15.1c8.3,0,15.1-6.8,15.1-15.1S71.4,19.6,63.1,19.6z M63.1,23.8
		c4.9,0,9,3.2,10.4,7.7c-3.4-1-6.9-1.5-10.4-1.5s-7,0.5-10.4,1.5C54,27,58.2,23.8,63.1,23.8z M74,34.7c0,6-4.9,10.9-10.9,10.9
		c-6,0-10.9-4.9-10.9-10.9v-0.1c3.5-1.2,7.1-1.8,10.9-1.8s7.4,0.6,10.9,1.8V34.7z"/>
</g>
<g>
	<path d="M82.2,108.1c-8.3,0-15.1-6.8-15.1-15.1s6.8-15.1,15.1-15.1c5,0,9.7,2.5,12.5,6.6c1.7,2.5,2.6,5.4,2.6,8.5
		C97.4,101.3,90.6,108.1,82.2,108.1z M82.2,82.1c-6,0-10.9,4.9-10.9,10.9s4.9,10.9,10.9,10.9S93.1,99,93.1,93c0-2.2-0.6-4.3-1.9-6.1
		C89.2,83.9,85.9,82.1,82.2,82.1z"/>
</g>
<g>
	<path d="M45,108.1c-8.3,0-15.1-6.8-15.1-15.1S36.7,77.9,45,77.9S60.1,84.7,60.1,93S53.3,108.1,45,108.1z M45,82.1
		c-6,0-10.9,4.9-10.9,10.9S39,103.9,45,103.9c6,0,10.9-4.9,10.9-10.9S51,82.1,45,82.1z"/>
</g>
<path d="M32.2,42.4c-8.3,0-15.1,6.8-15.1,15.1s6.8,15.1,15.1,15.1s15.1-6.8,15.1-15.1S40.5,42.4,32.2,42.4z M21.3,57.5
	c0-6,4.9-10.9,10.9-10.9c0,0,0,0,0.1,0c-3.9,5.9-6,12.7-6.1,19.9C23.2,64.5,21.3,61.2,21.3,57.5z M32.2,68.3c-1.1,0-2.2-0.2-3.3-0.5
	c0-0.3,0-0.6,0-0.9c0-7.3,2.2-14.1,6.4-20c4.5,1.4,7.7,5.5,7.7,10.4C43.1,63.5,38.2,68.3,32.2,68.3z"/>
<path d="M93.8,42.4c-8.3,0-15.1,6.8-15.1,15.1s6.8,15.1,15.1,15.1s15.1-6.8,15.1-15.1S102.2,42.4,93.8,42.4z M82.9,57.5
	c0-5,3.3-9.1,7.9-10.5c4.2,5.8,6.5,12.8,6.5,20c0,0.3,0,0.5,0,0.8c-1.1,0.4-2.2,0.6-3.4,0.6C87.8,68.3,82.9,63.5,82.9,57.5z
	 M100.1,66.4c-0.1-7.1-2.3-13.9-6.1-19.8c6,0.1,10.8,4.9,10.8,10.9C104.7,61.1,102.9,64.4,100.1,66.4z"/>
<g>
	<path fill="none" stroke="#000000" stroke-width="4.2154" stroke-miterlimit="10" d="M110.6,46.7"/>
</g>
<g>
	<path fill="#EE2647" d="M37.4,60.6C37.4,60.6,37.4,60.6,37.4,60.6c-1.2,0-2.1-1-2.1-2.1c0-0.6-0.2-2.3-1.2-3.3
		c-0.5-0.5-1.3-0.8-2.3-0.8c-1,0-1.8,0.3-2.4,0.8c-1,1-1.1,2.7-1.1,3.3c0,1.2-0.9,2.1-2.1,2.1c-1.2,0.1-2.1-0.9-2.2-2
		c0-0.4,0-3.9,2.3-6.3c1.3-1.4,3.2-2.1,5.4-2.1c2.1,0,4,0.7,5.3,2.1c2.4,2.4,2.4,5.9,2.4,6.3C39.5,59.6,38.6,60.6,37.4,60.6z"/>
</g>
<g>
	<path fill="#EE2647" d="M100.2,61.9C100.2,61.9,100.2,61.9,100.2,61.9c-1.2,0-2.1-1-2.1-2.1c0-0.6-0.2-2.3-1.2-3.3
		c-0.5-0.5-1.3-0.8-2.3-0.8c-1,0-1.8,0.3-2.4,0.8c-1,1-1.1,2.7-1.1,3.3c0,1.2-0.9,2.1-2.1,2.1c-1.2,0.1-2.1-0.9-2.2-2
		c0-0.4,0-3.9,2.3-6.3c1.3-1.4,3.2-2.1,5.4-2.1c2.1,0,4,0.7,5.3,2.1c2.4,2.4,2.4,5.9,2.4,6.3C102.3,60.9,101.4,61.9,100.2,61.9z"/>
</g>
</svg>
